<svg width="45" height="45" viewBox="0 0 45 45" fill="none" xmlns="http://www.w3.org/2000/svg">
<mask id="mask0_1647_919" style="mask-type:alpha" maskUnits="userSpaceOnUse" x="0" y="0" width="45" height="45">
<rect width="45" height="45" fill="#D9D9D9"/>
</mask>
<g mask="url(#mask0_1647_919)">
<path d="M11.25 43.125C9.6875 43.125 8.35938 42.5781 7.26562 41.4844C6.17188 40.3906 5.625 39.0625 5.625 37.5C5.625 35.9375 6.17188 34.6094 7.26562 33.5156C8.35938 32.4219 9.6875 31.875 11.25 31.875C11.6875 31.875 12.0938 31.9219 12.4688 32.0156C12.8438 32.1094 13.2031 32.2344 13.5469 32.3906L16.2188 29.0625C15.3438 28.0938 14.7344 27 14.3906 25.7812C14.0469 24.5625 13.9688 23.3438 14.1562 22.125L10.3594 20.8594C9.82812 21.6406 9.15625 22.2656 8.34375 22.7344C7.53125 23.2031 6.625 23.4375 5.625 23.4375C4.0625 23.4375 2.73438 22.8906 1.64062 21.7969C0.546875 20.7031 0 19.375 0 17.8125C0 16.25 0.546875 14.9219 1.64062 13.8281C2.73438 12.7344 4.0625 12.1875 5.625 12.1875C7.1875 12.1875 8.51562 12.7344 9.60938 13.8281C10.7031 14.9219 11.25 16.25 11.25 17.8125V18.1875L15.0469 19.5C15.6719 18.375 16.5078 17.4219 17.5547 16.6406C18.6016 15.8594 19.7812 15.3594 21.0938 15.1406V11.0625C19.875 10.7188 18.8672 10.0547 18.0703 9.07031C17.2734 8.08594 16.875 6.9375 16.875 5.625C16.875 4.0625 17.4219 2.73438 18.5156 1.64062C19.6094 0.546875 20.9375 0 22.5 0C24.0625 0 25.3906 0.546875 26.4844 1.64062C27.5781 2.73438 28.125 4.0625 28.125 5.625C28.125 6.9375 27.7188 8.08594 26.9062 9.07031C26.0938 10.0547 25.0938 10.7188 23.9062 11.0625V15.1406C25.2188 15.3594 26.3984 15.8594 27.4453 16.6406C28.4922 17.4219 29.3281 18.375 29.9531 19.5L33.75 18.1875V17.8125C33.75 16.25 34.2969 14.9219 35.3906 13.8281C36.4844 12.7344 37.8125 12.1875 39.375 12.1875C40.9375 12.1875 42.2656 12.7344 43.3594 13.8281C44.4531 14.9219 45 16.25 45 17.8125C45 19.375 44.4531 20.7031 43.3594 21.7969C42.2656 22.8906 40.9375 23.4375 39.375 23.4375C38.375 23.4375 37.4609 23.2031 36.6328 22.7344C35.8047 22.2656 35.1406 21.6406 34.6406 20.8594L30.8438 22.125C31.0313 23.3438 30.9531 24.5547 30.6094 25.7578C30.2656 26.9609 29.6562 28.0625 28.7812 29.0625L31.4531 32.3438C31.7969 32.1875 32.1562 32.0703 32.5312 31.9922C32.9062 31.9141 33.3125 31.875 33.75 31.875C35.3125 31.875 36.6406 32.4219 37.7344 33.5156C38.8281 34.6094 39.375 35.9375 39.375 37.5C39.375 39.0625 38.8281 40.3906 37.7344 41.4844C36.6406 42.5781 35.3125 43.125 33.75 43.125C32.1875 43.125 30.8594 42.5781 29.7656 41.4844C28.6719 40.3906 28.125 39.0625 28.125 37.5C28.125 36.875 28.2266 36.2734 28.4297 35.6953C28.6328 35.1172 28.9062 34.5938 29.25 34.125L26.5781 30.7969C25.2969 31.5156 23.9297 31.875 22.4766 31.875C21.0234 31.875 19.6562 31.5156 18.375 30.7969L15.75 34.125C16.0938 34.5938 16.3672 35.1172 16.5703 35.6953C16.7734 36.2734 16.875 36.875 16.875 37.5C16.875 39.0625 16.3281 40.3906 15.2344 41.4844C14.1406 42.5781 12.8125 43.125 11.25 43.125ZM5.625 19.6875C6.15625 19.6875 6.60156 19.5078 6.96094 19.1484C7.32031 18.7891 7.5 18.3438 7.5 17.8125C7.5 17.2812 7.32031 16.8359 6.96094 16.4766C6.60156 16.1172 6.15625 15.9375 5.625 15.9375C5.09375 15.9375 4.64844 16.1172 4.28906 16.4766C3.92969 16.8359 3.75 17.2812 3.75 17.8125C3.75 18.3438 3.92969 18.7891 4.28906 19.1484C4.64844 19.5078 5.09375 19.6875 5.625 19.6875ZM11.25 39.375C11.7812 39.375 12.2266 39.1953 12.5859 38.8359C12.9453 38.4766 13.125 38.0312 13.125 37.5C13.125 36.9688 12.9453 36.5234 12.5859 36.1641C12.2266 35.8047 11.7812 35.625 11.25 35.625C10.7188 35.625 10.2734 35.8047 9.91406 36.1641C9.55469 36.5234 9.375 36.9688 9.375 37.5C9.375 38.0312 9.55469 38.4766 9.91406 38.8359C10.2734 39.1953 10.7188 39.375 11.25 39.375ZM22.5 7.5C23.0312 7.5 23.4766 7.32031 23.8359 6.96094C24.1953 6.60156 24.375 6.15625 24.375 5.625C24.375 5.09375 24.1953 4.64844 23.8359 4.28906C23.4766 3.92969 23.0312 3.75 22.5 3.75C21.9688 3.75 21.5234 3.92969 21.1641 4.28906C20.8047 4.64844 20.625 5.09375 20.625 5.625C20.625 6.15625 20.8047 6.60156 21.1641 6.96094C21.5234 7.32031 21.9688 7.5 22.5 7.5ZM22.5 28.125C23.8125 28.125 24.9219 27.6719 25.8281 26.7656C26.7344 25.8594 27.1875 24.75 27.1875 23.4375C27.1875 22.125 26.7344 21.0156 25.8281 20.1094C24.9219 19.2031 23.8125 18.75 22.5 18.75C21.1875 18.75 20.0781 19.2031 19.1719 20.1094C18.2656 21.0156 17.8125 22.125 17.8125 23.4375C17.8125 24.75 18.2656 25.8594 19.1719 26.7656C20.0781 27.6719 21.1875 28.125 22.5 28.125ZM33.75 39.375C34.2812 39.375 34.7266 39.1953 35.0859 38.8359C35.4453 38.4766 35.625 38.0312 35.625 37.5C35.625 36.9688 35.4453 36.5234 35.0859 36.1641C34.7266 35.8047 34.2812 35.625 33.75 35.625C33.2188 35.625 32.7734 35.8047 32.4141 36.1641C32.0547 36.5234 31.875 36.9688 31.875 37.5C31.875 38.0312 32.0547 38.4766 32.4141 38.8359C32.7734 39.1953 33.2188 39.375 33.75 39.375ZM39.375 19.6875C39.9062 19.6875 40.3516 19.5078 40.7109 19.1484C41.0703 18.7891 41.25 18.3438 41.25 17.8125C41.25 17.2812 41.0703 16.8359 40.7109 16.4766C40.3516 16.1172 39.9062 15.9375 39.375 15.9375C38.8438 15.9375 38.3984 16.1172 38.0391 16.4766C37.6797 16.8359 37.5 17.2812 37.5 17.8125C37.5 18.3438 37.6797 18.7891 38.0391 19.1484C38.3984 19.5078 38.8438 19.6875 39.375 19.6875Z" fill="#214A3E"/>
</g>
</svg>
