<svg width="45" height="45" viewBox="0 0 45 45" fill="none" xmlns="http://www.w3.org/2000/svg">
<mask id="mask0_1647_931" style="mask-type:alpha" maskUnits="userSpaceOnUse" x="0" y="0" width="45" height="45">
<rect width="45" height="45" fill="#D9D9D9"/>
</mask>
<g mask="url(#mask0_1647_931)">
<path d="M13.125 31.875H16.875V22.5H13.125V31.875ZM28.125 31.875H31.875V13.125H28.125V31.875ZM20.625 31.875H24.375V26.25H20.625V31.875ZM20.625 22.5H24.375V18.75H20.625V22.5ZM9.375 39.375C8.34375 39.375 7.46094 39.0078 6.72656 38.2734C5.99219 37.5391 5.625 36.6562 5.625 35.625V9.375C5.625 8.34375 5.99219 7.46094 6.72656 6.72656C7.46094 5.99219 8.34375 5.625 9.375 5.625H35.625C36.6562 5.625 37.5391 5.99219 38.2734 6.72656C39.0078 7.46094 39.375 8.34375 39.375 9.375V35.625C39.375 36.6562 39.0078 37.5391 38.2734 38.2734C37.5391 39.0078 36.6562 39.375 35.625 39.375H9.375ZM9.375 35.625H35.625V9.375H9.375V35.625Z" fill="#214A3E"/>
</g>
</svg>
