<svg width="45" height="45" viewBox="0 0 45 45" fill="none" xmlns="http://www.w3.org/2000/svg">
<mask id="mask0_1647_925" style="mask-type:alpha" maskUnits="userSpaceOnUse" x="0" y="0" width="45" height="45">
<rect width="45" height="45" fill="#D9D9D9"/>
</mask>
<g mask="url(#mask0_1647_925)">
<path d="M9.375 41.25C8.34375 41.25 7.46094 40.8828 6.72656 40.1484C5.99219 39.4141 5.625 38.5312 5.625 37.5V11.25C5.625 10.2188 5.99219 9.33594 6.72656 8.60156C7.46094 7.86719 8.34375 7.5 9.375 7.5H11.25V3.75H15V7.5H30V3.75H33.75V7.5H35.625C36.6562 7.5 37.5391 7.86719 38.2734 8.60156C39.0078 9.33594 39.375 10.2188 39.375 11.25V37.5C39.375 38.5312 39.0078 39.4141 38.2734 40.1484C37.5391 40.8828 36.6562 41.25 35.625 41.25H9.375ZM9.375 37.5H35.625V18.75H9.375V37.5ZM9.375 15H35.625V11.25H9.375V15ZM22.5 26.25C21.9688 26.25 21.5234 26.0703 21.1641 25.7109C20.8047 25.3516 20.625 24.9062 20.625 24.375C20.625 23.8438 20.8047 23.3984 21.1641 23.0391C21.5234 22.6797 21.9688 22.5 22.5 22.5C23.0312 22.5 23.4766 22.6797 23.8359 23.0391C24.1953 23.3984 24.375 23.8438 24.375 24.375C24.375 24.9062 24.1953 25.3516 23.8359 25.7109C23.4766 26.0703 23.0312 26.25 22.5 26.25ZM15 26.25C14.4688 26.25 14.0234 26.0703 13.6641 25.7109C13.3047 25.3516 13.125 24.9062 13.125 24.375C13.125 23.8438 13.3047 23.3984 13.6641 23.0391C14.0234 22.6797 14.4688 22.5 15 22.5C15.5312 22.5 15.9766 22.6797 16.3359 23.0391C16.6953 23.3984 16.875 23.8438 16.875 24.375C16.875 24.9062 16.6953 25.3516 16.3359 25.7109C15.9766 26.0703 15.5312 26.25 15 26.25ZM30 26.25C29.4688 26.25 29.0234 26.0703 28.6641 25.7109C28.3047 25.3516 28.125 24.9062 28.125 24.375C28.125 23.8438 28.3047 23.3984 28.6641 23.0391C29.0234 22.6797 29.4688 22.5 30 22.5C30.5312 22.5 30.9766 22.6797 31.3359 23.0391C31.6953 23.3984 31.875 23.8438 31.875 24.375C31.875 24.9062 31.6953 25.3516 31.3359 25.7109C30.9766 26.0703 30.5312 26.25 30 26.25ZM22.5 33.75C21.9688 33.75 21.5234 33.5703 21.1641 33.2109C20.8047 32.8516 20.625 32.4062 20.625 31.875C20.625 31.3438 20.8047 30.8984 21.1641 30.5391C21.5234 30.1797 21.9688 30 22.5 30C23.0312 30 23.4766 30.1797 23.8359 30.5391C24.1953 30.8984 24.375 31.3438 24.375 31.875C24.375 32.4062 24.1953 32.8516 23.8359 33.2109C23.4766 33.5703 23.0312 33.75 22.5 33.75ZM15 33.75C14.4688 33.75 14.0234 33.5703 13.6641 33.2109C13.3047 32.8516 13.125 32.4062 13.125 31.875C13.125 31.3438 13.3047 30.8984 13.6641 30.5391C14.0234 30.1797 14.4688 30 15 30C15.5312 30 15.9766 30.1797 16.3359 30.5391C16.6953 30.8984 16.875 31.3438 16.875 31.875C16.875 32.4062 16.6953 32.8516 16.3359 33.2109C15.9766 33.5703 15.5312 33.75 15 33.75ZM30 33.75C29.4688 33.75 29.0234 33.5703 28.6641 33.2109C28.3047 32.8516 28.125 32.4062 28.125 31.875C28.125 31.3438 28.3047 30.8984 28.6641 30.5391C29.0234 30.1797 29.4688 30 30 30C30.5312 30 30.9766 30.1797 31.3359 30.5391C31.6953 30.8984 31.875 31.3438 31.875 31.875C31.875 32.4062 31.6953 32.8516 31.3359 33.2109C30.9766 33.5703 30.5312 33.75 30 33.75Z" fill="#214A3E"/>
</g>
</svg>
