<svg width="45" height="45" viewBox="0 0 45 45" fill="none" xmlns="http://www.w3.org/2000/svg">
<mask id="mask0_1647_883" style="mask-type:alpha" maskUnits="userSpaceOnUse" x="0" y="0" width="45" height="45">
<rect width="45" height="45" fill="#D9D9D9"/>
</mask>
<g mask="url(#mask0_1647_883)">
<path d="M1.96875 39.375V34.125C1.96875 33.0938 2.23438 32.125 2.76562 31.2188C3.29688 30.3125 4.03125 29.625 4.96875 29.1562C6.5625 28.3438 8.35937 27.6562 10.3594 27.0938C12.3594 26.5312 14.5625 26.25 16.9688 26.25C19.375 26.25 21.5781 26.5312 23.5781 27.0938C25.5781 27.6562 27.375 28.3438 28.9688 29.1562C29.9063 29.625 30.6406 30.3125 31.1719 31.2188C31.7031 32.125 31.9688 33.0938 31.9688 34.125V39.375H1.96875ZM5.71875 35.625H28.2188V34.125C28.2188 33.7812 28.1328 33.4688 27.9609 33.1875C27.7891 32.9062 27.5625 32.6875 27.2812 32.5312C26.1562 31.9688 24.7109 31.4062 22.9453 30.8438C21.1797 30.2812 19.1875 30 16.9688 30C14.75 30 12.7578 30.2812 10.9922 30.8438C9.22656 31.4062 7.78125 31.9688 6.65625 32.5312C6.375 32.6875 6.14844 32.9062 5.97656 33.1875C5.80469 33.4688 5.71875 33.7812 5.71875 34.125V35.625ZM16.9688 24.375C14.9062 24.375 13.1406 23.6406 11.6719 22.1719C10.2031 20.7031 9.46875 18.9375 9.46875 16.875H9C8.71875 16.875 8.49219 16.7891 8.32031 16.6172C8.14844 16.4453 8.0625 16.2188 8.0625 15.9375C8.0625 15.6562 8.14844 15.4297 8.32031 15.2578C8.49219 15.0859 8.71875 15 9 15H9.46875C9.46875 13.5938 9.8125 12.3281 10.5 11.2031C11.1875 10.0781 12.0938 9.1875 13.2188 8.53125V10.3125C13.2188 10.5938 13.3047 10.8203 13.4766 10.9922C13.6484 11.1641 13.875 11.25 14.1562 11.25C14.4375 11.25 14.6641 11.1641 14.8359 10.9922C15.0078 10.8203 15.0938 10.5938 15.0938 10.3125V7.78125C15.375 7.6875 15.6719 7.61719 15.9844 7.57031C16.2969 7.52344 16.625 7.5 16.9688 7.5C17.3125 7.5 17.6406 7.52344 17.9531 7.57031C18.2656 7.61719 18.5625 7.6875 18.8438 7.78125V10.3125C18.8438 10.5938 18.9297 10.8203 19.1016 10.9922C19.2734 11.1641 19.5 11.25 19.7812 11.25C20.0625 11.25 20.2891 11.1641 20.4609 10.9922C20.6328 10.8203 20.7188 10.5938 20.7188 10.3125V8.53125C21.8438 9.1875 22.75 10.0781 23.4375 11.2031C24.125 12.3281 24.4688 13.5938 24.4688 15H24.9375C25.2188 15 25.4453 15.0859 25.6172 15.2578C25.7891 15.4297 25.875 15.6562 25.875 15.9375C25.875 16.2188 25.7891 16.4453 25.6172 16.6172C25.4453 16.7891 25.2188 16.875 24.9375 16.875H24.4688C24.4688 18.9375 23.7344 20.7031 22.2656 22.1719C20.7969 23.6406 19.0312 24.375 16.9688 24.375ZM16.9688 20.625C18 20.625 18.8828 20.2578 19.6172 19.5234C20.3516 18.7891 20.7188 17.9062 20.7188 16.875H13.2188C13.2188 17.9062 13.5859 18.7891 14.3203 19.5234C15.0547 20.2578 15.9375 20.625 16.9688 20.625ZM31.0312 28.125L30.75 26.7188C30.5625 26.6562 30.3828 26.5859 30.2109 26.5078C30.0391 26.4297 29.875 26.3125 29.7188 26.1562L28.4062 26.625L27.4688 24.9375L28.5 24V22.875L27.4688 21.9375L28.4062 20.25L29.7188 20.7188C29.8438 20.5938 30 20.4844 30.1875 20.3906C30.375 20.2969 30.5625 20.2188 30.75 20.1562L31.0312 18.75H32.9062L33.1875 20.1562C33.375 20.2188 33.5625 20.2969 33.75 20.3906C33.9375 20.4844 34.0938 20.5938 34.2188 20.7188L35.5312 20.25L36.4688 21.9375L35.4375 22.875V24L36.4688 24.9375L35.5312 26.625L34.2188 26.1562C34.0625 26.3125 33.8984 26.4297 33.7266 26.5078C33.5547 26.5859 33.375 26.6562 33.1875 26.7188L32.9062 28.125H31.0312ZM31.9688 24.8438C32.3438 24.8438 32.6719 24.7031 32.9531 24.4219C33.2344 24.1406 33.375 23.8125 33.375 23.4375C33.375 23.0625 33.2344 22.7344 32.9531 22.4531C32.6719 22.1719 32.3438 22.0312 31.9688 22.0312C31.5938 22.0312 31.2656 22.1719 30.9844 22.4531C30.7031 22.7344 30.5625 23.0625 30.5625 23.4375C30.5625 23.8125 30.7031 24.1406 30.9844 24.4219C31.2656 24.7031 31.5938 24.8438 31.9688 24.8438ZM35.3438 18.75L34.9688 16.7813C34.6875 16.6875 34.4297 16.5703 34.1953 16.4297C33.9609 16.2891 33.75 16.125 33.5625 15.9375L31.5938 16.5938L30.2812 14.3438L31.875 12.9375C31.8125 12.7812 31.7813 12.6562 31.7813 12.5625V11.8125C31.7813 11.7188 31.8125 11.5938 31.875 11.4375L30.2812 10.0313L31.5938 7.78125L33.5625 8.4375C33.75 8.25 33.9609 8.08594 34.1953 7.94531C34.4297 7.80469 34.6875 7.6875 34.9688 7.59375L35.3438 5.625H37.9688L38.3438 7.59375C38.625 7.6875 38.8828 7.80469 39.1172 7.94531C39.3516 8.08594 39.5625 8.25 39.75 8.4375L41.7188 7.78125L43.0312 10.0313L41.4375 11.4375C41.5 11.5938 41.5312 11.7188 41.5312 11.8125V12.5625C41.5312 12.6562 41.5 12.7812 41.4375 12.9375L43.0312 14.3438L41.7188 16.5938L39.75 15.9375C39.5625 16.125 39.3516 16.2891 39.1172 16.4297C38.8828 16.5703 38.625 16.6875 38.3438 16.7813L37.9688 18.75H35.3438ZM36.6562 14.5312C37.3125 14.5312 37.8672 14.3047 38.3203 13.8516C38.7734 13.3984 39 12.8438 39 12.1875C39 11.5312 38.7734 10.9766 38.3203 10.5234C37.8672 10.0703 37.3125 9.84375 36.6562 9.84375C36 9.84375 35.4453 10.0703 34.9922 10.5234C34.5391 10.9766 34.3125 11.5312 34.3125 12.1875C34.3125 12.8438 34.5391 13.3984 34.9922 13.8516C35.4453 14.3047 36 14.5312 36.6562 14.5312Z" fill="#214A3E"/>
</g>
</svg>
