<svg width="45" height="45" viewBox="0 0 45 45" fill="none" xmlns="http://www.w3.org/2000/svg">
<mask id="mask0_1647_901" style="mask-type:alpha" maskUnits="userSpaceOnUse" x="0" y="0" width="45" height="45">
<rect width="45" height="45" fill="#D9D9D9"/>
</mask>
<g mask="url(#mask0_1647_901)">
<path d="M16.5 39.375H9.375C8.34375 39.375 7.46094 39.0078 6.72656 38.2734C5.99219 37.5391 5.625 36.6562 5.625 35.625V28.5C7.125 28.5 8.4375 28.0234 9.5625 27.0703C10.6875 26.1172 11.25 24.9062 11.25 23.4375C11.25 21.9688 10.6875 20.7578 9.5625 19.8047C8.4375 18.8516 7.125 18.375 5.625 18.375V11.25C5.625 10.2188 5.99219 9.33594 6.72656 8.60156C7.46094 7.86719 8.34375 7.5 9.375 7.5H16.875C16.875 6.1875 17.3281 5.07812 18.2344 4.17188C19.1406 3.26562 20.25 2.8125 21.5625 2.8125C22.875 2.8125 23.9844 3.26562 24.8906 4.17188C25.7969 5.07812 26.25 6.1875 26.25 7.5H33.75C34.7812 7.5 35.6641 7.86719 36.3984 8.60156C37.1328 9.33594 37.5 10.2188 37.5 11.25V18.75C38.8125 18.75 39.9219 19.2031 40.8281 20.1094C41.7344 21.0156 42.1875 22.125 42.1875 23.4375C42.1875 24.75 41.7344 25.8594 40.8281 26.7656C39.9219 27.6719 38.8125 28.125 37.5 28.125V35.625C37.5 36.6562 37.1328 37.5391 36.3984 38.2734C35.6641 39.0078 34.7812 39.375 33.75 39.375H26.625C26.625 37.8125 26.1328 36.4844 25.1484 35.3906C24.1641 34.2969 22.9688 33.75 21.5625 33.75C20.1562 33.75 18.9609 34.2969 17.9766 35.3906C16.9922 36.4844 16.5 37.8125 16.5 39.375ZM9.375 35.625H13.3594C14.1094 33.5625 15.3125 32.1094 16.9688 31.2656C18.625 30.4219 20.1562 30 21.5625 30C22.9688 30 24.5 30.4219 26.1562 31.2656C27.8125 32.1094 29.0156 33.5625 29.7656 35.625H33.75V24.375H37.5C37.75 24.375 37.9688 24.2812 38.1562 24.0938C38.3438 23.9062 38.4375 23.6875 38.4375 23.4375C38.4375 23.1875 38.3438 22.9688 38.1562 22.7813C37.9688 22.5938 37.75 22.5 37.5 22.5H33.75V11.25H22.5V7.5C22.5 7.25 22.4062 7.03125 22.2188 6.84375C22.0312 6.65625 21.8125 6.5625 21.5625 6.5625C21.3125 6.5625 21.0938 6.65625 20.9063 6.84375C20.7188 7.03125 20.625 7.25 20.625 7.5V11.25H9.375V15.375C11.0625 16 12.4219 17.0469 13.4531 18.5156C14.4844 19.9844 15 21.625 15 23.4375C15 25.2188 14.4844 26.8438 13.4531 28.3125C12.4219 29.7812 11.0625 30.8438 9.375 31.5V35.625Z" fill="#214A3E"/>
</g>
</svg>
