<svg width="45" height="45" viewBox="0 0 45 45" fill="none" xmlns="http://www.w3.org/2000/svg">
<mask id="mask0_1643_469" style="mask-type:alpha" maskUnits="userSpaceOnUse" x="0" y="0" width="45" height="45">
<rect width="45" height="45" fill="#D9D9D9"/>
</mask>
<g mask="url(#mask0_1643_469)">
<path d="M22.2658 37.5C22.3908 37.5 22.5158 37.4688 22.6408 37.4062C22.7658 37.3438 22.8596 37.2812 22.9221 37.2188L38.2971 21.8438C38.6721 21.4688 38.9455 21.0469 39.1174 20.5781C39.2893 20.1094 39.3752 19.6406 39.3752 19.1719C39.3752 18.6719 39.2893 18.1953 39.1174 17.7422C38.9455 17.2891 38.6721 16.8906 38.2971 16.5469L30.3283 8.57812C29.9846 8.20312 29.5861 7.92969 29.133 7.75781C28.6799 7.58594 28.2033 7.5 27.7033 7.5C27.2346 7.5 26.7658 7.58594 26.2971 7.75781C25.8283 7.92969 25.4064 8.20312 25.0314 8.57812L24.5158 9.09375L27.9846 12.6094C28.4533 13.0469 28.7971 13.5469 29.0158 14.1094C29.2346 14.6719 29.3439 15.2656 29.3439 15.8906C29.3439 17.2031 28.8986 18.3047 28.008 19.1953C27.1174 20.0859 26.0158 20.5312 24.7033 20.5312C24.0783 20.5312 23.4768 20.4219 22.8986 20.2031C22.3205 19.9844 21.8127 19.6562 21.3752 19.2188L17.8596 15.75L9.65645 23.9531C9.5627 24.0469 9.49238 24.1484 9.44551 24.2578C9.39863 24.3672 9.3752 24.4844 9.3752 24.6094C9.3752 24.8594 9.46895 25.0859 9.65645 25.2891C9.84395 25.4922 10.0627 25.5938 10.3127 25.5938C10.4377 25.5938 10.5627 25.5625 10.6877 25.5C10.8127 25.4375 10.9064 25.375 10.9689 25.3125L17.3439 18.9375L19.9689 21.5625L13.6408 27.9375C13.5471 28.0313 13.4768 28.1328 13.4299 28.2422C13.383 28.3516 13.3596 28.4688 13.3596 28.5938C13.3596 28.8438 13.4533 29.0625 13.6408 29.25C13.8283 29.4375 14.0471 29.5312 14.2971 29.5312C14.4221 29.5312 14.5471 29.5 14.6721 29.4375C14.7971 29.375 14.8908 29.3125 14.9533 29.25L21.3283 22.9219L23.9533 25.5469L17.6252 31.9219C17.5314 31.9844 17.4611 32.0781 17.4143 32.2031C17.3674 32.3281 17.3439 32.4531 17.3439 32.5781C17.3439 32.8281 17.4377 33.0469 17.6252 33.2344C17.8127 33.4219 18.0314 33.5156 18.2814 33.5156C18.4064 33.5156 18.5236 33.4922 18.633 33.4453C18.7424 33.3984 18.8439 33.3281 18.9377 33.2344L25.3127 26.9062L27.9377 29.5312L21.5627 35.9062C21.4689 36 21.3986 36.1016 21.3518 36.2109C21.3049 36.3203 21.2814 36.4375 21.2814 36.5625C21.2814 36.8125 21.383 37.0312 21.5861 37.2188C21.7893 37.4062 22.0158 37.5 22.2658 37.5ZM22.2189 41.25C21.0627 41.25 20.0393 40.8672 19.1486 40.1016C18.258 39.3359 17.7346 38.375 17.5783 37.2188C16.5158 37.0625 15.6252 36.625 14.9064 35.9062C14.1877 35.1875 13.7502 34.2969 13.5939 33.2344C12.5314 33.0781 11.6486 32.6328 10.9455 31.8984C10.2424 31.1641 9.8127 30.2812 9.65645 29.25C8.46895 29.0938 7.5002 28.5781 6.7502 27.7031C6.0002 26.8281 5.6252 25.7969 5.6252 24.6094C5.6252 23.9844 5.74238 23.3828 5.97676 22.8047C6.21113 22.2266 6.54707 21.7188 6.98457 21.2812L17.8596 10.4531L24.0002 16.5938C24.0627 16.6875 24.1564 16.7578 24.2814 16.8047C24.4064 16.8516 24.5314 16.875 24.6564 16.875C24.9377 16.875 25.1721 16.7891 25.3596 16.6172C25.5471 16.4453 25.6408 16.2188 25.6408 15.9375C25.6408 15.8125 25.6174 15.6875 25.5705 15.5625C25.5236 15.4375 25.4533 15.3438 25.3596 15.2812L18.6564 8.57812C18.3127 8.20312 17.9143 7.92969 17.4611 7.75781C17.008 7.58594 16.5314 7.5 16.0314 7.5C15.5627 7.5 15.0939 7.58594 14.6252 7.75781C14.1564 7.92969 13.7346 8.20312 13.3596 8.57812L6.7502 15.2344C6.46895 15.5156 6.23457 15.8438 6.04707 16.2188C5.85957 16.5938 5.73457 16.9688 5.67207 17.3438C5.60957 17.7188 5.60957 18.1016 5.67207 18.4922C5.73457 18.8828 5.85957 19.25 6.04707 19.5938L3.32832 22.3125C2.79707 21.5938 2.40645 20.8047 2.15645 19.9453C1.90645 19.0859 1.8127 18.2188 1.8752 17.3438C1.9377 16.4688 2.15645 15.6172 2.53145 14.7891C2.90645 13.9609 3.42207 13.2188 4.07832 12.5625L10.6877 5.95313C11.4377 5.23438 12.2736 4.6875 13.1955 4.3125C14.1174 3.9375 15.0627 3.75 16.0314 3.75C17.0002 3.75 17.9455 3.9375 18.8674 4.3125C19.7893 4.6875 20.6096 5.23438 21.3283 5.95313L21.8439 6.46875L22.3596 5.95313C23.1096 5.23438 23.9455 4.6875 24.8674 4.3125C25.7893 3.9375 26.7346 3.75 27.7033 3.75C28.6721 3.75 29.6174 3.9375 30.5393 4.3125C31.4611 4.6875 32.2814 5.23438 33.0002 5.95313L40.9221 13.875C41.6408 14.5938 42.1877 15.4219 42.5627 16.3594C42.9377 17.2969 43.1252 18.25 43.1252 19.2188C43.1252 20.1875 42.9377 21.1328 42.5627 22.0547C42.1877 22.9766 41.6408 23.7969 40.9221 24.5156L25.5471 39.8438C25.1096 40.2812 24.6018 40.625 24.0236 40.875C23.4455 41.125 22.8439 41.25 22.2189 41.25Z" fill="#214A3E"/>
</g>
</svg>
