<svg xmlns="http://www.w3.org/2000/svg" width="880" height="880" viewBox="0 0 880 880" version="1.1"><path d="M 318 144.500 C 318 144.775, 318.225 145, 318.500 145 C 318.775 145, 319 144.775, 319 144.500 C 319 144.225, 318.775 144, 318.500 144 C 318.225 144, 318 144.225, 318 144.500 M 326 144.500 C 326 144.775, 326.225 145, 326.500 145 C 326.775 145, 327 144.775, 327 144.500 C 327 144.225, 326.775 144, 326.500 144 C 326.225 144, 326 144.225, 326 144.500 M 553 144.500 C 553 144.775, 553.225 145, 553.500 145 C 553.775 145, 554 144.775, 554 144.500 C 554 144.225, 553.775 144, 553.500 144 C 553.225 144, 553 144.225, 553 144.500 M 556 144.500 C 556 144.775, 556.225 145, 556.500 145 C 556.775 145, 557 144.775, 557 144.500 C 557 144.225, 556.775 144, 556.500 144 C 556.225 144, 556 144.225, 556 144.500 M 568 144.500 C 568 144.775, 568.225 145, 568.500 145 C 568.775 145, 569 144.775, 569 144.500 C 569 144.225, 568.775 144, 568.500 144 C 568.225 144, 568 144.225, 568 144.500 M 315 145.500 C 315 145.775, 315.225 146, 315.500 146 C 315.775 146, 316 145.775, 316 145.500 C 316 145.225, 315.775 145, 315.500 145 C 315.225 145, 315 145.225, 315 145.500 M 336 145.500 C 336 145.775, 336.225 146, 336.500 146 C 336.775 146, 337 145.775, 337 145.500 C 337 145.225, 336.775 145, 336.500 145 C 336.225 145, 336 145.225, 336 145.500 M 548 145.500 C 548 145.775, 548.225 146, 548.500 146 C 548.775 146, 549 145.775, 549 145.500 C 549 145.225, 548.775 145, 548.500 145 C 548.225 145, 548 145.225, 548 145.500 M 571 145.500 C 571 145.775, 571.225 146, 571.500 146 C 571.775 146, 572 145.775, 572 145.500 C 572 145.225, 571.775 145, 571.500 145 C 571.225 145, 571 145.225, 571 145.500 M 542 146.500 C 542 146.775, 542.225 147, 542.500 147 C 542.775 147, 543 146.775, 543 146.500 C 543 146.225, 542.775 146, 542.500 146 C 542.225 146, 542 146.225, 542 146.500 M 350 147.500 C 350 147.775, 350.225 148, 350.500 148 C 350.775 148, 351 147.775, 351 147.500 C 351 147.225, 350.775 147, 350.500 147 C 350.225 147, 350 147.225, 350 147.500 M 353 148.500 C 353 148.775, 353.225 149, 353.500 149 C 353.775 149, 354 148.775, 354 148.500 C 354 148.225, 353.775 148, 353.500 148 C 353.225 148, 353 148.225, 353 148.500 M 535 148.500 C 535 148.775, 535.225 149, 535.500 149 C 535.775 149, 536 148.775, 536 148.500 C 536 148.225, 535.775 148, 535.500 148 C 535.225 148, 535 148.225, 535 148.500 M 574 148.500 C 574 148.775, 574.225 149, 574.500 149 C 574.775 149, 575 148.775, 575 148.500 C 575 148.225, 574.775 148, 574.500 148 C 574.225 148, 574 148.225, 574 148.500 M 355 149.500 C 355 149.775, 355.225 150, 355.500 150 C 355.775 150, 356 149.775, 356 149.500 C 356 149.225, 355.775 149, 355.500 149 C 355.225 149, 355 149.225, 355 149.500 M 533 149.500 C 533 149.775, 533.225 150, 533.500 150 C 533.775 150, 534 149.775, 534 149.500 C 534 149.225, 533.775 149, 533.500 149 C 533.225 149, 533 149.225, 533 149.500 M 311 150.500 C 311 150.775, 311.225 151, 311.500 151 C 311.775 151, 312 150.775, 312 150.500 C 312 150.225, 311.775 150, 311.500 150 C 311.225 150, 311 150.225, 311 150.500 M 357 150.500 C 357 150.775, 357.225 151, 357.500 151 C 357.775 151, 358 150.775, 358 150.500 C 358 150.225, 357.775 150, 357.500 150 C 357.225 150, 357 150.225, 357 150.500 M 530 150.500 C 530 150.775, 530.225 151, 530.500 151 C 530.775 151, 531 150.775, 531 150.500 C 531 150.225, 530.775 150, 530.500 150 C 530.225 150, 530 150.225, 530 150.500 M 360 152.500 C 360 152.775, 360.225 153, 360.500 153 C 360.775 153, 361 152.775, 361 152.500 C 361 152.225, 360.775 152, 360.500 152 C 360.225 152, 360 152.225, 360 152.500 M 527 152.500 C 527 152.775, 527.225 153, 527.500 153 C 527.775 153, 528 152.775, 528 152.500 C 528 152.225, 527.775 152, 527.500 152 C 527.225 152, 527 152.225, 527 152.500 M 575 153 C 575 153.733, 575.300 154.033, 575.667 153.667 C 576.033 153.300, 576.033 152.700, 575.667 152.333 C 575.300 151.967, 575 152.267, 575 153 M 362 153.500 C 362 153.775, 362.225 154, 362.500 154 C 362.775 154, 363 153.775, 363 153.500 C 363 153.225, 362.775 153, 362.500 153 C 362.225 153, 362 153.225, 362 153.500 M 525 153.500 C 525 153.775, 525.225 154, 525.500 154 C 525.775 154, 526 153.775, 526 153.500 C 526 153.225, 525.775 153, 525.500 153 C 525.225 153, 525 153.225, 525 153.500 M 311 155.500 C 311 155.775, 311.225 156, 311.500 156 C 311.775 156, 312 155.775, 312 155.500 C 312 155.225, 311.775 155, 311.500 155 C 311.225 155, 311 155.225, 311 155.500 M 521 155.500 C 521 155.775, 521.225 156, 521.500 156 C 521.775 156, 522 155.775, 522 155.500 C 522 155.225, 521.775 155, 521.500 155 C 521.225 155, 521 155.225, 521 155.500 M 371 159.500 C 371 159.775, 371.225 160, 371.500 160 C 371.775 160, 372 159.775, 372 159.500 C 372 159.225, 371.775 159, 371.500 159 C 371.225 159, 371 159.225, 371 159.500 M 513.872 160.750 C 512.629 162.336, 512.664 162.371, 514.250 161.128 C 515.212 160.373, 516 159.585, 516 159.378 C 516 159.170, 515.830 159, 515.622 159 C 515.415 159, 514.627 159.787, 513.872 160.750 M 315 160.500 C 315 160.775, 315.225 161, 315.500 161 C 315.775 161, 316 160.775, 316 160.500 C 316 160.225, 315.775 160, 315.500 160 C 315.225 160, 315 160.225, 315 160.500 M 317 161.500 C 317 161.775, 317.225 162, 317.500 162 C 317.775 162, 318 161.775, 318 161.500 C 318 161.225, 317.775 161, 317.500 161 C 317.225 161, 317 161.225, 317 161.500 M 569 161.500 C 569 161.775, 569.225 162, 569.500 162 C 569.775 162, 570 161.775, 570 161.500 C 570 161.225, 569.775 161, 569.500 161 C 569.225 161, 569 161.225, 569 161.500 M 556 162.500 C 556 162.775, 556.225 163, 556.500 163 C 556.775 163, 557 162.775, 557 162.500 C 557 162.225, 556.775 162, 556.500 162 C 556.225 162, 556 162.225, 556 162.500 M 334 163.500 C 334 163.775, 334.225 164, 334.500 164 C 334.775 164, 335 163.775, 335 163.500 C 335 163.225, 334.775 163, 334.500 163 C 334.225 163, 334 163.225, 334 163.500 M 510.405 164.155 C 509.962 164.870, 510.130 165.038, 510.845 164.595 C 511.480 164.203, 512 163.684, 512 163.441 C 512 163.198, 511.802 163, 511.559 163 C 511.316 163, 510.797 163.520, 510.405 164.155 M 552 163.500 C 552 163.775, 552.225 164, 552.500 164 C 552.775 164, 553 163.775, 553 163.500 C 553 163.225, 552.775 163, 552.500 163 C 552.225 163, 552 163.225, 552 163.500 M 338 164.500 C 338 164.775, 338.225 165, 338.500 165 C 338.775 165, 339 164.775, 339 164.500 C 339 164.225, 338.775 164, 338.500 164 C 338.225 164, 338 164.225, 338 164.500 M 548 164.500 C 548 164.775, 548.225 165, 548.500 165 C 548.775 165, 549 164.775, 549 164.500 C 549 164.225, 548.775 164, 548.500 164 C 548.225 164, 548 164.225, 548 164.500 M 346 166.500 C 346 166.775, 346.225 167, 346.500 167 C 346.775 167, 347 166.775, 347 166.500 C 347 166.225, 346.775 166, 346.500 166 C 346.225 166, 346 166.225, 346 166.500 M 542 166.500 C 542 166.775, 542.225 167, 542.500 167 C 542.775 167, 543 166.775, 543 166.500 C 543 166.225, 542.775 166, 542.500 166 C 542.225 166, 542 166.225, 542 166.500 M 348 167.500 C 348 167.775, 348.225 168, 348.500 168 C 348.775 168, 349 167.775, 349 167.500 C 349 167.225, 348.775 167, 348.500 167 C 348.225 167, 348 167.225, 348 167.500 M 507 167.500 C 507 167.775, 507.225 168, 507.500 168 C 507.775 168, 508 167.775, 508 167.500 C 508 167.225, 507.775 167, 507.500 167 C 507.225 167, 507 167.225, 507 167.500 M 534 170.500 C 534 170.775, 534.225 171, 534.500 171 C 534.775 171, 535 170.775, 535 170.500 C 535 170.225, 534.775 170, 534.500 170 C 534.225 170, 534 170.225, 534 170.500 M 383.500 172 C 383.840 172.550, 384.343 173, 384.618 173 C 384.893 173, 384.840 172.550, 384.500 172 C 384.160 171.450, 383.657 171, 383.382 171 C 383.107 171, 383.160 171.450, 383.500 172 M 532 171.500 C 532 171.775, 532.225 172, 532.500 172 C 532.775 172, 533 171.775, 533 171.500 C 533 171.225, 532.775 171, 532.500 171 C 532.225 171, 532 171.225, 532 171.500 M 503 172.500 C 503 172.775, 503.225 173, 503.500 173 C 503.775 173, 504 172.775, 504 172.500 C 504 172.225, 503.775 172, 503.500 172 C 503.225 172, 503 172.225, 503 172.500 M 387 177.500 C 387 177.775, 387.225 178, 387.500 178 C 387.775 178, 388 177.775, 388 177.500 C 388 177.225, 387.775 177, 387.500 177 C 387.225 177, 387 177.225, 387 177.500 M 499 178.500 C 499 178.775, 499.225 179, 499.500 179 C 499.775 179, 500 178.775, 500 178.500 C 500 178.225, 499.775 178, 499.500 178 C 499.225 178, 499 178.225, 499 178.500 M 388 179.500 C 388 179.775, 388.225 180, 388.500 180 C 388.775 180, 389 179.775, 389 179.500 C 389 179.225, 388.775 179, 388.500 179 C 388.225 179, 388 179.225, 388 179.500 M 498 180.500 C 498 180.775, 498.225 181, 498.500 181 C 498.775 181, 499 180.775, 499 180.500 C 499 180.225, 498.775 180, 498.500 180 C 498.225 180, 498 180.225, 498 180.500 M 522 180.500 C 522 180.775, 522.225 181, 522.500 181 C 522.775 181, 523 180.775, 523 180.500 C 523 180.225, 522.775 180, 522.500 180 C 522.225 180, 522 180.225, 522 180.500 M 389 181.500 C 389 181.775, 389.225 182, 389.500 182 C 389.775 182, 390 181.775, 390 181.500 C 390 181.225, 389.775 181, 389.500 181 C 389.225 181, 389 181.225, 389 181.500 M 497 182.500 C 497 182.775, 497.225 183, 497.500 183 C 497.775 183, 498 182.775, 498 182.500 C 498 182.225, 497.775 182, 497.500 182 C 497.225 182, 497 182.225, 497 182.500 M 390 183.500 C 390 183.775, 390.225 184, 390.500 184 C 390.775 184, 391 183.775, 391 183.500 C 391 183.225, 390.775 183, 390.500 183 C 390.225 183, 390 183.225, 390 183.500 M 519 184.500 C 519 184.775, 519.225 185, 519.500 185 C 519.775 185, 520 184.775, 520 184.500 C 520 184.225, 519.775 184, 519.500 184 C 519.225 184, 519 184.225, 519 184.500 M 370 187.500 C 370 187.775, 370.225 188, 370.500 188 C 370.775 188, 371 187.775, 371 187.500 C 371 187.225, 370.775 187, 370.500 187 C 370.225 187, 370 187.225, 370 187.500 M 391 188.500 C 391 188.775, 391.225 189, 391.500 189 C 391.775 189, 392 188.775, 392 188.500 C 392 188.225, 391.775 188, 391.500 188 C 391.225 188, 391 188.225, 391 188.500 M 516 188.500 C 516 188.775, 516.225 189, 516.500 189 C 516.775 189, 517 188.775, 517 188.500 C 517 188.225, 516.775 188, 516.500 188 C 516.225 188, 516 188.225, 516 188.500 M 495 189.500 C 495 189.775, 495.225 190, 495.500 190 C 495.775 190, 496 189.775, 496 189.500 C 496 189.225, 495.775 189, 495.500 189 C 495.225 189, 495 189.225, 495 189.500 M 373 192.500 C 373 192.775, 373.225 193, 373.500 193 C 373.775 193, 374 192.775, 374 192.500 C 374 192.225, 373.775 192, 373.500 192 C 373.225 192, 373 192.225, 373 192.500 M 513 193.500 C 513 193.775, 513.225 194, 513.500 194 C 513.775 194, 514 193.775, 514 193.500 C 514 193.225, 513.775 193, 513.500 193 C 513.225 193, 513 193.225, 513 193.500 M 510 197.500 C 510 197.775, 510.225 198, 510.500 198 C 510.775 198, 511 197.775, 511 197.500 C 511 197.225, 510.775 197, 510.500 197 C 510.225 197, 510 197.225, 510 197.500 M 379 199.500 C 379 199.775, 379.225 200, 379.500 200 C 379.775 200, 380 199.775, 380 199.500 C 380 199.225, 379.775 199, 379.500 199 C 379.225 199, 379 199.225, 379 199.500 M 502.264 199.718 C 503.784 199.947, 506.034 199.941, 507.264 199.704 C 508.494 199.467, 507.250 199.279, 504.500 199.286 C 501.750 199.294, 500.744 199.488, 502.264 199.718 M 384.333 200.667 C 384.700 201.033, 385.300 201.033, 385.667 200.667 C 386.033 200.300, 385.733 200, 385 200 C 384.267 200, 383.967 200.300, 384.333 200.667 M 434 203.500 C 434 203.775, 434.225 204, 434.500 204 C 434.775 204, 435 203.775, 435 203.500 C 435 203.225, 434.775 203, 434.500 203 C 434.225 203, 434 203.225, 434 203.500 M 455 203.500 C 455 203.775, 455.225 204, 455.500 204 C 455.775 204, 456 203.775, 456 203.500 C 456 203.225, 455.775 203, 455.500 203 C 455.225 203, 455 203.225, 455 203.500 M 429 204.500 C 429 204.775, 429.225 205, 429.500 205 C 429.775 205, 430 204.775, 430 204.500 C 430 204.225, 429.775 204, 429.500 204 C 429.225 204, 429 204.225, 429 204.500 M 459 204.500 C 459 204.775, 459.225 205, 459.500 205 C 459.775 205, 460 204.775, 460 204.500 C 460 204.225, 459.775 204, 459.500 204 C 459.225 204, 459 204.225, 459 204.500 M 425 205.500 C 425 205.775, 425.225 206, 425.500 206 C 425.775 206, 426 205.775, 426 205.500 C 426 205.225, 425.775 205, 425.500 205 C 425.225 205, 425 205.225, 425 205.500 M 462.333 205.667 C 462.700 206.033, 463.300 206.033, 463.667 205.667 C 464.033 205.300, 463.733 205, 463 205 C 462.267 205, 461.967 205.300, 462.333 205.667 M 421 206.500 C 421 206.775, 421.225 207, 421.500 207 C 421.775 207, 422 206.775, 422 206.500 C 422 206.225, 421.775 206, 421.500 206 C 421.225 206, 421 206.225, 421 206.500 M 467 206.500 C 467 206.775, 467.225 207, 467.500 207 C 467.775 207, 468 206.775, 468 206.500 C 468 206.225, 467.775 206, 467.500 206 C 467.225 206, 467 206.225, 467 206.500 M 411 210.500 C 411 210.775, 411.225 211, 411.500 211 C 411.775 211, 412 210.775, 412 210.500 C 412 210.225, 411.775 210, 411.500 210 C 411.225 210, 411 210.225, 411 210.500 M 408 212.500 C 408 212.775, 408.225 213, 408.500 213 C 408.775 213, 409 212.775, 409 212.500 C 409 212.225, 408.775 212, 408.500 212 C 408.225 212, 408 212.225, 408 212.500 M 480 212.500 C 480 212.775, 480.225 213, 480.500 213 C 480.775 213, 481 212.775, 481 212.500 C 481 212.225, 480.775 212, 480.500 212 C 480.225 212, 480 212.225, 480 212.500 M 406 213.500 C 406 213.775, 406.225 214, 406.500 214 C 406.775 214, 407 213.775, 407 213.500 C 407 213.225, 406.775 213, 406.500 213 C 406.225 213, 406 213.225, 406 213.500 M 483 214.500 C 483 214.775, 483.225 215, 483.500 215 C 483.775 215, 484 214.775, 484 214.500 C 484 214.225, 483.775 214, 483.500 214 C 483.225 214, 483 214.225, 483 214.500 M 403 215.500 C 403 215.775, 403.225 216, 403.500 216 C 403.775 216, 404 215.775, 404 215.500 C 404 215.225, 403.775 215, 403.500 215 C 403.225 215, 403 215.225, 403 215.500 M 486 216.500 C 486 216.775, 486.225 217, 486.500 217 C 486.775 217, 487 216.775, 487 216.500 C 487 216.225, 486.775 216, 486.500 216 C 486.225 216, 486 216.225, 486 216.500 M 489 218.500 C 489 218.775, 489.225 219, 489.500 219 C 489.775 219, 490 218.775, 490 218.500 C 490 218.225, 489.775 218, 489.500 218 C 489.225 218, 489 218.225, 489 218.500 M 492 220.500 C 492 220.775, 492.225 221, 492.500 221 C 492.775 221, 493 220.775, 493 220.500 C 493 220.225, 492.775 220, 492.500 220 C 492.225 220, 492 220.225, 492 220.500 M 391 225.500 C 391 225.775, 391.225 226, 391.500 226 C 391.775 226, 392 225.775, 392 225.500 C 392 225.225, 391.775 225, 391.500 225 C 391.225 225, 391 225.225, 391 225.500 M 389 228.500 C 389 228.775, 389.225 229, 389.500 229 C 389.775 229, 390 228.775, 390 228.500 C 390 228.225, 389.775 228, 389.500 228 C 389.225 228, 389 228.225, 389 228.500 M 499 228.500 C 499 228.775, 499.225 229, 499.500 229 C 499.775 229, 500 228.775, 500 228.500 C 500 228.225, 499.775 228, 499.500 228 C 499.225 228, 499 228.225, 499 228.500 M 501.500 232 C 501.840 232.550, 502.343 233, 502.618 233 C 502.893 233, 502.840 232.550, 502.500 232 C 502.160 231.450, 501.657 231, 501.382 231 C 501.107 231, 501.160 231.450, 501.500 232 M 385 233.500 C 385 233.775, 385.225 234, 385.500 234 C 385.775 234, 386 233.775, 386 233.500 C 386 233.225, 385.775 233, 385.500 233 C 385.225 233, 385 233.225, 385 233.500 M 504 235.500 C 504 235.775, 504.225 236, 504.500 236 C 504.775 236, 505 235.775, 505 235.500 C 505 235.225, 504.775 235, 504.500 235 C 504.225 235, 504 235.225, 504 235.500 M 383 236.500 C 383 236.775, 383.225 237, 383.500 237 C 383.775 237, 384 236.775, 384 236.500 C 384 236.225, 383.775 236, 383.500 236 C 383.225 236, 383 236.225, 383 236.500 M 381 239.500 C 381 239.775, 381.225 240, 381.500 240 C 381.775 240, 382 239.775, 382 239.500 C 382 239.225, 381.775 239, 381.500 239 C 381.225 239, 381 239.225, 381 239.500 M 507 239.500 C 507 239.775, 507.225 240, 507.500 240 C 507.775 240, 508 239.775, 508 239.500 C 508 239.225, 507.775 239, 507.500 239 C 507.225 239, 507 239.225, 507 239.500 M 380 241.500 C 380 241.775, 380.225 242, 380.500 242 C 380.775 242, 381 241.775, 381 241.500 C 381 241.225, 380.775 241, 380.500 241 C 380.225 241, 380 241.225, 380 241.500 M 379 244.500 C 379 244.775, 379.225 245, 379.500 245 C 379.775 245, 380 244.775, 380 244.500 C 380 244.225, 379.775 244, 379.500 244 C 379.225 244, 379 244.225, 379 244.500 M 509 244.500 C 509 244.775, 509.225 245, 509.500 245 C 509.775 245, 510 244.775, 510 244.500 C 510 244.225, 509.775 244, 509.500 244 C 509.225 244, 509 244.225, 509 244.500 M 378 246.500 C 378 246.775, 378.225 247, 378.500 247 C 378.775 247, 379 246.775, 379 246.500 C 379 246.225, 378.775 246, 378.500 246 C 378.225 246, 378 246.225, 378 246.500 M 377 248.500 C 377 248.775, 377.225 249, 377.500 249 C 377.775 249, 378 248.775, 378 248.500 C 378 248.225, 377.775 248, 377.500 248 C 377.225 248, 377 248.225, 377 248.500 M 511 250.500 C 511 250.775, 511.225 251, 511.500 251 C 511.775 251, 512 250.775, 512 250.500 C 512 250.225, 511.775 250, 511.500 250 C 511.225 250, 511 250.225, 511 250.500 M 376 251.500 C 376 251.775, 376.225 252, 376.500 252 C 376.775 252, 377 251.775, 377 251.500 C 377 251.225, 376.775 251, 376.500 251 C 376.225 251, 376 251.225, 376 251.500 M 512 253.500 C 512 253.775, 512.225 254, 512.500 254 C 512.775 254, 513 253.775, 513 253.500 C 513 253.225, 512.775 253, 512.500 253 C 512.225 253, 512 253.225, 512 253.500 M 374 261.500 C 374 261.775, 374.225 262, 374.500 262 C 374.775 262, 375 261.775, 375 261.500 C 375 261.225, 374.775 261, 374.500 261 C 374.225 261, 374 261.225, 374 261.500 M 373 267.500 C 373 267.775, 373.225 268, 373.500 268 C 373.775 268, 374 267.775, 374 267.500 C 374 267.225, 373.775 267, 373.500 267 C 373.225 267, 373 267.225, 373 267.500 M 373 276.500 C 373 276.775, 373.225 277, 373.500 277 C 373.775 277, 374 276.775, 374 276.500 C 374 276.225, 373.775 276, 373.500 276 C 373.225 276, 373 276.225, 373 276.500 M 514.158 282 C 514.158 283.375, 514.385 283.938, 514.662 283.250 C 514.940 282.563, 514.940 281.438, 514.662 280.750 C 514.385 280.063, 514.158 280.625, 514.158 282 M 374 283.500 C 374 283.775, 374.225 284, 374.500 284 C 374.775 284, 375 283.775, 375 283.500 C 375 283.225, 374.775 283, 374.500 283 C 374.225 283, 374 283.225, 374 283.500 M 374 285.500 C 374 285.775, 374.225 286, 374.500 286 C 374.775 286, 375 285.775, 375 285.500 C 375 285.225, 374.775 285, 374.500 285 C 374.225 285, 374 285.225, 374 285.500 M 513 288.500 C 513 288.775, 513.225 289, 513.500 289 C 513.775 289, 514 288.775, 514 288.500 C 514 288.225, 513.775 288, 513.500 288 C 513.225 288, 513 288.225, 513 288.500 M 375 289.500 C 375 289.775, 375.225 290, 375.500 290 C 375.775 290, 376 289.775, 376 289.500 C 376 289.225, 375.775 289, 375.500 289 C 375.225 289, 375 289.225, 375 289.500 M 512 292.500 C 512 292.775, 512.225 293, 512.500 293 C 512.775 293, 513 292.775, 513 292.500 C 513 292.225, 512.775 292, 512.500 292 C 512.225 292, 512 292.225, 512 292.500 M 376 294.500 C 376 294.775, 376.225 295, 376.500 295 C 376.775 295, 377 294.775, 377 294.500 C 377 294.225, 376.775 294, 376.500 294 C 376.225 294, 376 294.225, 376 294.500 M 378 299.500 C 378 299.775, 378.225 300, 378.500 300 C 378.775 300, 379 299.775, 379 299.500 C 379 299.225, 378.775 299, 378.500 299 C 378.225 299, 378 299.225, 378 299.500 M 379 302.500 C 379 302.775, 379.225 303, 379.500 303 C 379.775 303, 380 302.775, 380 302.500 C 380 302.225, 379.775 302, 379.500 302 C 379.225 302, 379 302.225, 379 302.500 M 508 302.500 C 508 302.775, 508.225 303, 508.500 303 C 508.775 303, 509 302.775, 509 302.500 C 509 302.225, 508.775 302, 508.500 302 C 508.225 302, 508 302.225, 508 302.500 M 380 304.500 C 380 304.775, 380.225 305, 380.500 305 C 380.775 305, 381 304.775, 381 304.500 C 381 304.225, 380.775 304, 380.500 304 C 380.225 304, 380 304.225, 380 304.500 M 381 306.500 C 381 306.775, 381.225 307, 381.500 307 C 381.775 307, 382 306.775, 382 306.500 C 382 306.225, 381.775 306, 381.500 306 C 381.225 306, 381 306.225, 381 306.500 M 506 306.500 C 506 306.775, 506.225 307, 506.500 307 C 506.775 307, 507 306.775, 507 306.500 C 507 306.225, 506.775 306, 506.500 306 C 506.225 306, 506 306.225, 506 306.500 M 383 309.500 C 383 309.775, 383.225 310, 383.500 310 C 383.775 310, 384 309.775, 384 309.500 C 384 309.225, 383.775 309, 383.500 309 C 383.225 309, 383 309.225, 383 309.500 M 504 310.500 C 504 310.775, 504.225 311, 504.500 311 C 504.775 311, 505 310.775, 505 310.500 C 505 310.225, 504.775 310, 504.500 310 C 504.225 310, 504 310.225, 504 310.500 M 386 314.500 C 386 314.775, 386.225 315, 386.500 315 C 386.775 315, 387 314.775, 387 314.500 C 387 314.225, 386.775 314, 386.500 314 C 386.225 314, 386 314.225, 386 314.500 M 498 318.500 C 498 318.775, 498.225 319, 498.500 319 C 498.775 319, 499 318.775, 499 318.500 C 499 318.225, 498.775 318, 498.500 318 C 498.225 318, 498 318.225, 498 318.500 M 494.872 321.750 C 493.629 323.336, 493.664 323.371, 495.250 322.128 C 496.212 321.373, 497 320.585, 497 320.378 C 497 320.170, 496.830 320, 496.622 320 C 496.415 320, 495.627 320.788, 494.872 321.750 M 395 324.500 C 395 324.775, 395.225 325, 395.500 325 C 395.775 325, 396 324.775, 396 324.500 C 396 324.225, 395.775 324, 395.500 324 C 395.225 324, 395 324.225, 395 324.500 M 491 325.500 C 491 325.775, 491.225 326, 491.500 326 C 491.775 326, 492 325.775, 492 325.500 C 492 325.225, 491.775 325, 491.500 325 C 491.225 325, 491 325.225, 491 325.500 M 400 328.500 C 400 328.775, 400.225 329, 400.500 329 C 400.775 329, 401 328.775, 401 328.500 C 401 328.225, 400.775 328, 400.500 328 C 400.225 328, 400 328.225, 400 328.500 M 402 329.500 C 402 329.775, 402.225 330, 402.500 330 C 402.775 330, 403 329.775, 403 329.500 C 403 329.225, 402.775 329, 402.500 329 C 402.225 329, 402 329.225, 402 329.500 M 480 332.500 C 480 332.775, 480.225 333, 480.500 333 C 480.775 333, 481 332.775, 481 332.500 C 481 332.225, 480.775 332, 480.500 332 C 480.225 332, 480 332.225, 480 332.500 M 412 335.500 C 412 335.775, 412.225 336, 412.500 336 C 412.775 336, 413 335.775, 413 335.500 C 413 335.225, 412.775 335, 412.500 335 C 412.225 335, 412 335.225, 412 335.500 M 414 336.500 C 414 336.775, 414.225 337, 414.500 337 C 414.775 337, 415 336.775, 415 336.500 C 415 336.225, 414.775 336, 414.500 336 C 414.225 336, 414 336.225, 414 336.500 M 471 337.500 C 471 337.775, 471.225 338, 471.500 338 C 471.775 338, 472 337.775, 472 337.500 C 472 337.225, 471.775 337, 471.500 337 C 471.225 337, 471 337.225, 471 337.500 M 419 338.500 C 419 338.775, 419.225 339, 419.500 339 C 419.775 339, 420 338.775, 420 338.500 C 420 338.225, 419.775 338, 419.500 338 C 419.225 338, 419 338.225, 419 338.500 M 469 338.500 C 469 338.775, 469.225 339, 469.500 339 C 469.775 339, 470 338.775, 470 338.500 C 470 338.225, 469.775 338, 469.500 338 C 469.225 338, 469 338.225, 469 338.500 M 466 339.500 C 466 339.775, 466.225 340, 466.500 340 C 466.775 340, 467 339.775, 467 339.500 C 467 339.225, 466.775 339, 466.500 339 C 466.225 339, 466 339.225, 466 339.500 M 463 340.500 C 463 340.775, 463.225 341, 463.500 341 C 463.775 341, 464 340.775, 464 340.500 C 464 340.225, 463.775 340, 463.500 340 C 463.225 340, 463 340.225, 463 340.500 M 428 341.500 C 428 341.775, 428.225 342, 428.500 342 C 428.775 342, 429 341.775, 429 341.500 C 429 341.225, 428.775 341, 428.500 341 C 428.225 341, 428 341.225, 428 341.500 M 458 341.500 C 458 341.775, 458.225 342, 458.500 342 C 458.775 342, 459 341.775, 459 341.500 C 459 341.225, 458.775 341, 458.500 341 C 458.225 341, 458 341.225, 458 341.500 M 452 342.500 C 452 342.775, 452.225 343, 452.500 343 C 452.775 343, 453 342.775, 453 342.500 C 453 342.225, 452.775 342, 452.500 342 C 452.225 342, 452 342.225, 452 342.500 M 454 342.500 C 454 342.775, 454.225 343, 454.500 343 C 454.775 343, 455 342.775, 455 342.500 C 455 342.225, 454.775 342, 454.500 342 C 454.225 342, 454 342.225, 454 342.500 M 341.333 346.667 C 341.700 347.033, 342.300 347.033, 342.667 346.667 C 343.033 346.300, 342.733 346, 342 346 C 341.267 346, 340.967 346.300, 341.333 346.667 M 345.333 346.667 C 345.700 347.033, 346.300 347.033, 346.667 346.667 C 347.033 346.300, 346.733 346, 346 346 C 345.267 346, 344.967 346.300, 345.333 346.667 M 379.762 346.707 C 381.006 346.946, 382.806 346.937, 383.762 346.687 C 384.718 346.437, 383.700 346.241, 381.500 346.252 C 379.300 346.263, 378.518 346.468, 379.762 346.707 M 507.750 346.706 C 508.988 346.944, 511.012 346.944, 512.250 346.706 C 513.487 346.467, 512.475 346.272, 510 346.272 C 507.525 346.272, 506.512 346.467, 507.750 346.706 M 331 347.500 C 331 347.775, 331.225 348, 331.500 348 C 331.775 348, 332 347.775, 332 347.500 C 332 347.225, 331.775 347, 331.500 347 C 331.225 347, 331 347.225, 331 347.500 M 394 347.500 C 394 347.775, 394.225 348, 394.500 348 C 394.775 348, 395 347.775, 395 347.500 C 395 347.225, 394.775 347, 394.500 347 C 394.225 347, 394 347.225, 394 347.500 M 556 347.500 C 556 347.775, 556.225 348, 556.500 348 C 556.775 348, 557 347.775, 557 347.500 C 557 347.225, 556.775 347, 556.500 347 C 556.225 347, 556 347.225, 556 347.500 M 324 348.500 C 324 348.775, 324.225 349, 324.500 349 C 324.775 349, 325 348.775, 325 348.500 C 325 348.225, 324.775 348, 324.500 348 C 324.225 348, 324 348.225, 324 348.500 M 401 348.500 C 401 348.775, 401.225 349, 401.500 349 C 401.775 349, 402 348.775, 402 348.500 C 402 348.225, 401.775 348, 401.500 348 C 401.225 348, 401 348.225, 401 348.500 M 318 349.500 C 318 349.775, 318.225 350, 318.500 350 C 318.775 350, 319 349.775, 319 349.500 C 319 349.225, 318.775 349, 318.500 349 C 318.225 349, 318 349.225, 318 349.500 M 408 349.500 C 408 349.775, 408.225 350, 408.500 350 C 408.775 350, 409 349.775, 409 349.500 C 409 349.225, 408.775 349, 408.500 349 C 408.225 349, 408 349.225, 408 349.500 M 569 349.500 C 569 349.775, 569.225 350, 569.500 350 C 569.775 350, 570 349.775, 570 349.500 C 570 349.225, 569.775 349, 569.500 349 C 569.225 349, 569 349.225, 569 349.500 M 311 350.500 C 311 350.775, 311.225 351, 311.500 351 C 311.775 351, 312 350.775, 312 350.500 C 312 350.225, 311.775 350, 311.500 350 C 311.225 350, 311 350.225, 311 350.500 M 416 350.500 C 416 350.775, 416.225 351, 416.500 351 C 416.775 351, 417 350.775, 417 350.500 C 417 350.225, 416.775 350, 416.500 350 C 416.225 350, 416 350.225, 416 350.500 M 471 350.500 C 471 350.775, 471.225 351, 471.500 351 C 471.775 351, 472 350.775, 472 350.500 C 472 350.225, 471.775 350, 471.500 350 C 471.225 350, 471 350.225, 471 350.500 M 576.333 350.667 C 576.700 351.033, 577.300 351.033, 577.667 350.667 C 578.033 350.300, 577.733 350, 577 350 C 576.267 350, 575.967 350.300, 576.333 350.667 M 305 351.500 C 305 351.775, 305.225 352, 305.500 352 C 305.775 352, 306 351.775, 306 351.500 C 306 351.225, 305.775 351, 305.500 351 C 305.225 351, 305 351.225, 305 351.500 M 581 351.500 C 581 351.775, 581.225 352, 581.500 352 C 581.775 352, 582 351.775, 582 351.500 C 582 351.225, 581.775 351, 581.500 351 C 581.225 351, 581 351.225, 581 351.500 M 301 352.500 C 301 352.775, 301.225 353, 301.500 353 C 301.775 353, 302 352.775, 302 352.500 C 302 352.225, 301.775 352, 301.500 352 C 301.225 352, 301 352.225, 301 352.500 M 430 352.500 C 430 352.775, 430.225 353, 430.500 353 C 430.775 353, 431 352.775, 431 352.500 C 431 352.225, 430.775 352, 430.500 352 C 430.225 352, 430 352.225, 430 352.500 M 459 353 C 459 353.733, 459.300 354.033, 459.667 353.667 C 460.033 353.300, 460.033 352.700, 459.667 352.333 C 459.300 351.967, 459 352.267, 459 353 M 298 353.500 C 298 353.775, 298.225 354, 298.500 354 C 298.775 354, 299 353.775, 299 353.500 C 299 353.225, 298.775 353, 298.500 353 C 298.225 353, 298 353.225, 298 353.500 M 590 353.500 C 590 353.775, 590.225 354, 590.500 354 C 590.775 354, 591 353.775, 591 353.500 C 591 353.225, 590.775 353, 590.500 353 C 590.225 353, 590 353.225, 590 353.500 M 293 354.500 C 293 354.775, 293.225 355, 293.500 355 C 293.775 355, 294 354.775, 294 354.500 C 294 354.225, 293.775 354, 293.500 354 C 293.225 354, 293 354.225, 293 354.500 M 594 354.500 C 594 354.775, 594.225 355, 594.500 355 C 594.775 355, 595 354.775, 595 354.500 C 595 354.225, 594.775 354, 594.500 354 C 594.225 354, 594 354.225, 594 354.500 M 286 356.500 C 286 356.775, 286.225 357, 286.500 357 C 286.775 357, 287 356.775, 287 356.500 C 287 356.225, 286.775 356, 286.500 356 C 286.225 356, 286 356.225, 286 356.500 M 602 356.500 C 602 356.775, 602.225 357, 602.500 357 C 602.775 357, 603 356.775, 603 356.500 C 603 356.225, 602.775 356, 602.500 356 C 602.225 356, 602 356.225, 602 356.500 M 282 357.500 C 282 357.775, 282.225 358, 282.500 358 C 282.775 358, 283 357.775, 283 357.500 C 283 357.225, 282.775 357, 282.500 357 C 282.225 357, 282 357.225, 282 357.500 M 605 357.500 C 605 357.775, 605.225 358, 605.500 358 C 605.775 358, 606 357.775, 606 357.500 C 606 357.225, 605.775 357, 605.500 357 C 605.225 357, 605 357.225, 605 357.500 M 278 358.500 C 278 358.775, 278.225 359, 278.500 359 C 278.775 359, 279 358.775, 279 358.500 C 279 358.225, 278.775 358, 278.500 358 C 278.225 358, 278 358.225, 278 358.500 M 460 358.500 C 460 358.775, 460.225 359, 460.500 359 C 460.775 359, 461 358.775, 461 358.500 C 461 358.225, 460.775 358, 460.500 358 C 460.225 358, 460 358.225, 460 358.500 M 275 359.500 C 275 359.775, 275.225 360, 275.500 360 C 275.775 360, 276 359.775, 276 359.500 C 276 359.225, 275.775 359, 275.500 359 C 275.225 359, 275 359.225, 275 359.500 M 611 359.500 C 611 359.775, 611.225 360, 611.500 360 C 611.775 360, 612 359.775, 612 359.500 C 612 359.225, 611.775 359, 611.500 359 C 611.225 359, 611 359.225, 611 359.500 M 272 360.500 C 272 360.775, 272.225 361, 272.500 361 C 272.775 361, 273 360.775, 273 360.500 C 273 360.225, 272.775 360, 272.500 360 C 272.225 360, 272 360.225, 272 360.500 M 427 360.500 C 427 360.775, 427.225 361, 427.500 361 C 427.775 361, 428 360.775, 428 360.500 C 428 360.225, 427.775 360, 427.500 360 C 427.225 360, 427 360.225, 427 360.500 M 461 360.500 C 461 360.775, 461.225 361, 461.500 361 C 461.775 361, 462 360.775, 462 360.500 C 462 360.225, 461.775 360, 461.500 360 C 461.225 360, 461 360.225, 461 360.500 M 270 361.500 C 270 361.775, 270.225 362, 270.500 362 C 270.775 362, 271 361.775, 271 361.500 C 271 361.225, 270.775 361, 270.500 361 C 270.225 361, 270 361.225, 270 361.500 M 617 361.500 C 617 361.775, 617.225 362, 617.500 362 C 617.775 362, 618 361.775, 618 361.500 C 618 361.225, 617.775 361, 617.500 361 C 617.225 361, 617 361.225, 617 361.500 M 265 363.500 C 265 363.775, 265.225 364, 265.500 364 C 265.775 364, 266 363.775, 266 363.500 C 266 363.225, 265.775 363, 265.500 363 C 265.225 363, 265 363.225, 265 363.500 M 426 363.500 C 426 363.775, 426.225 364, 426.500 364 C 426.775 364, 427 363.775, 427 363.500 C 427 363.225, 426.775 363, 426.500 363 C 426.225 363, 426 363.225, 426 363.500 M 622 363.500 C 622 363.775, 622.225 364, 622.500 364 C 622.775 364, 623 363.775, 623 363.500 C 623 363.225, 622.775 363, 622.500 363 C 622.225 363, 622 363.225, 622 363.500 M 624 364.500 C 624 364.775, 624.225 365, 624.500 365 C 624.775 365, 625 364.775, 625 364.500 C 625 364.225, 624.775 364, 624.500 364 C 624.225 364, 624 364.225, 624 364.500 M 261 365.500 C 261 365.775, 261.225 366, 261.500 366 C 261.775 366, 262 365.775, 262 365.500 C 262 365.225, 261.775 365, 261.500 365 C 261.225 365, 261 365.225, 261 365.500 M 463 365.500 C 463 365.775, 463.225 366, 463.500 366 C 463.775 366, 464 365.775, 464 365.500 C 464 365.225, 463.775 365, 463.500 365 C 463.225 365, 463 365.225, 463 365.500 M 626 365.500 C 626 365.775, 626.225 366, 626.500 366 C 626.775 366, 627 365.775, 627 365.500 C 627 365.225, 626.775 365, 626.500 365 C 626.225 365, 626 365.225, 626 365.500 M 629 366.500 C 629 366.775, 629.225 367, 629.500 367 C 629.775 367, 630 366.775, 630 366.500 C 630 366.225, 629.775 366, 629.500 366 C 629.225 366, 629 366.225, 629 366.500 M 256 367.500 C 256 367.775, 256.225 368, 256.500 368 C 256.775 368, 257 367.775, 257 367.500 C 257 367.225, 256.775 367, 256.500 367 C 256.225 367, 256 367.225, 256 367.500 M 424 367.500 C 424 367.775, 424.225 368, 424.500 368 C 424.775 368, 425 367.775, 425 367.500 C 425 367.225, 424.775 367, 424.500 367 C 424.225 367, 424 367.225, 424 367.500 M 464 367.500 C 464 367.775, 464.225 368, 464.500 368 C 464.775 368, 465 367.775, 465 367.500 C 465 367.225, 464.775 367, 464.500 367 C 464.225 367, 464 367.225, 464 367.500 M 254 368.500 C 254 368.775, 254.225 369, 254.500 369 C 254.775 369, 255 368.775, 255 368.500 C 255 368.225, 254.775 368, 254.500 368 C 254.225 368, 254 368.225, 254 368.500 M 633 368.500 C 633 368.775, 633.225 369, 633.500 369 C 633.775 369, 634 368.775, 634 368.500 C 634 368.225, 633.775 368, 633.500 368 C 633.225 368, 633 368.225, 633 368.500 M 252 369.500 C 252 369.775, 252.225 370, 252.500 370 C 252.775 370, 253 369.775, 253 369.500 C 253 369.225, 252.775 369, 252.500 369 C 252.225 369, 252 369.225, 252 369.500 M 423 369.500 C 423 369.775, 423.225 370, 423.500 370 C 423.775 370, 424 369.775, 424 369.500 C 424 369.225, 423.775 369, 423.500 369 C 423.225 369, 423 369.225, 423 369.500 M 465 369.500 C 465 369.775, 465.225 370, 465.500 370 C 465.775 370, 466 369.775, 466 369.500 C 466 369.225, 465.775 369, 465.500 369 C 465.225 369, 465 369.225, 465 369.500 M 635 369.500 C 635 369.775, 635.225 370, 635.500 370 C 635.775 370, 636 369.775, 636 369.500 C 636 369.225, 635.775 369, 635.500 369 C 635.225 369, 635 369.225, 635 369.500 M 637 370.500 C 637 370.775, 637.225 371, 637.500 371 C 637.775 371, 638 370.775, 638 370.500 C 638 370.225, 637.775 370, 637.500 370 C 637.225 370, 637 370.225, 637 370.500 M 466 371.500 C 466 371.775, 466.225 372, 466.500 372 C 466.775 372, 467 371.775, 467 371.500 C 467 371.225, 466.775 371, 466.500 371 C 466.225 371, 466 371.225, 466 371.500 M 639 371.500 C 639 371.775, 639.225 372, 639.500 372 C 639.775 372, 640 371.775, 640 371.500 C 640 371.225, 639.775 371, 639.500 371 C 639.225 371, 639 371.225, 639 371.500 M 246 372.500 C 246 372.775, 246.225 373, 246.500 373 C 246.775 373, 247 372.775, 247 372.500 C 247 372.225, 246.775 372, 246.500 372 C 246.225 372, 246 372.225, 246 372.500 M 244 373.500 C 244 373.775, 244.225 374, 244.500 374 C 244.775 374, 245 373.775, 245 373.500 C 245 373.225, 244.775 373, 244.500 373 C 244.225 373, 244 373.225, 244 373.500 M 467 373.500 C 467 373.775, 467.225 374, 467.500 374 C 467.775 374, 468 373.775, 468 373.500 C 468 373.225, 467.775 373, 467.500 373 C 467.225 373, 467 373.225, 467 373.500 M 642 373.500 C 642 373.775, 642.225 374, 642.500 374 C 642.775 374, 643 373.775, 643 373.500 C 643 373.225, 642.775 373, 642.500 373 C 642.225 373, 642 373.225, 642 373.500 M 644 374.500 C 644 374.775, 644.225 375, 644.500 375 C 644.775 375, 645 374.775, 645 374.500 C 645 374.225, 644.775 374, 644.500 374 C 644.225 374, 644 374.225, 644 374.500 M 241 375.500 C 241 375.775, 241.225 376, 241.500 376 C 241.775 376, 242 375.775, 242 375.500 C 242 375.225, 241.775 375, 241.500 375 C 241.225 375, 241 375.225, 241 375.500 M 646 375.500 C 646 375.775, 646.225 376, 646.500 376 C 646.775 376, 647 375.775, 647 375.500 C 647 375.225, 646.775 375, 646.500 375 C 646.225 375, 646 375.225, 646 375.500 M 238 377.500 C 238 377.775, 238.225 378, 238.500 378 C 238.775 378, 239 377.775, 239 377.500 C 239 377.225, 238.775 377, 238.500 377 C 238.225 377, 238 377.225, 238 377.500 M 419 377.500 C 419 377.775, 419.225 378, 419.500 378 C 419.775 378, 420 377.775, 420 377.500 C 420 377.225, 419.775 377, 419.500 377 C 419.225 377, 419 377.225, 419 377.500 M 649 377.500 C 649 377.775, 649.225 378, 649.500 378 C 649.775 378, 650 377.775, 650 377.500 C 650 377.225, 649.775 377, 649.500 377 C 649.225 377, 649 377.225, 649 377.500 M 652 379.500 C 652 379.775, 652.225 380, 652.500 380 C 652.775 380, 653 379.775, 653 379.500 C 653 379.225, 652.775 379, 652.500 379 C 652.225 379, 652 379.225, 652 379.500 M 234 380.500 C 234 380.775, 234.225 381, 234.500 381 C 234.775 381, 235 380.775, 235 380.500 C 235 380.225, 234.775 380, 234.500 380 C 234.225 380, 234 380.225, 234 380.500 M 655 381.500 C 655 381.775, 655.225 382, 655.500 382 C 655.775 382, 656 381.775, 656 381.500 C 656 381.225, 655.775 381, 655.500 381 C 655.225 381, 655 381.225, 655 381.500 M 416 382.500 C 416 382.775, 416.225 383, 416.500 383 C 416.775 383, 417 382.775, 417 382.500 C 417 382.225, 416.775 382, 416.500 382 C 416.225 382, 416 382.225, 416 382.500 M 230 383.500 C 230 383.775, 230.225 384, 230.500 384 C 230.775 384, 231 383.775, 231 383.500 C 231 383.225, 230.775 383, 230.500 383 C 230.225 383, 230 383.225, 230 383.500 M 415 384.500 C 415 384.775, 415.225 385, 415.500 385 C 415.775 385, 416 384.775, 416 384.500 C 416 384.225, 415.775 384, 415.500 384 C 415.225 384, 415 384.225, 415 384.500 M 659 384.500 C 659 384.775, 659.225 385, 659.500 385 C 659.775 385, 660 384.775, 660 384.500 C 660 384.225, 659.775 384, 659.500 384 C 659.225 384, 659 384.225, 659 384.500 M 227 385.500 C 227 385.775, 227.225 386, 227.500 386 C 227.775 386, 228 385.775, 228 385.500 C 228 385.225, 227.775 385, 227.500 385 C 227.225 385, 227 385.225, 227 385.500 M 661 386.500 C 661 386.775, 661.225 387, 661.500 387 C 661.775 387, 662 386.775, 662 386.500 C 662 386.225, 661.775 386, 661.500 386 C 661.225 386, 661 386.225, 661 386.500 M 477 390.500 C 477 390.775, 477.225 391, 477.500 391 C 477.775 391, 478 390.775, 478 390.500 C 478 390.225, 477.775 390, 477.500 390 C 477.225 390, 477 390.225, 477 390.500 M 219 393.500 C 219 393.775, 219.225 394, 219.500 394 C 219.775 394, 220 393.775, 220 393.500 C 220 393.225, 219.775 393, 219.500 393 C 219.225 393, 219 393.225, 219 393.500 M 669 394.500 C 669 394.775, 669.225 395, 669.500 395 C 669.775 395, 670 394.775, 670 394.500 C 670 394.225, 669.775 394, 669.500 394 C 669.225 394, 669 394.225, 669 394.500 M 407 396.500 C 407 396.775, 407.225 397, 407.500 397 C 407.775 397, 408 396.775, 408 396.500 C 408 396.225, 407.775 396, 407.500 396 C 407.225 396, 407 396.225, 407 396.500 M 216 397.500 C 216 397.775, 216.225 398, 216.500 398 C 216.775 398, 217 397.775, 217 397.500 C 217 397.225, 216.775 397, 216.500 397 C 216.225 397, 216 397.225, 216 397.500 M 672 398.500 C 672 398.775, 672.225 399, 672.500 399 C 672.775 399, 673 398.775, 673 398.500 C 673 398.225, 672.775 398, 672.500 398 C 672.225 398, 672 398.225, 672 398.500 M 444 399.500 C 444 399.775, 444.225 400, 444.500 400 C 444.775 400, 445 399.775, 445 399.500 C 445 399.225, 444.775 399, 444.500 399 C 444.225 399, 444 399.225, 444 399.500 M 483 399.500 C 483 399.775, 483.225 400, 483.500 400 C 483.775 400, 484 399.775, 484 399.500 C 484 399.225, 483.775 399, 483.500 399 C 483.225 399, 483 399.225, 483 399.500 M 442 402.500 C 442 402.775, 442.225 403, 442.500 403 C 442.775 403, 443 402.775, 443 402.500 C 443 402.225, 442.775 402, 442.500 402 C 442.225 402, 442 402.225, 442 402.500 M 446 402.500 C 446 402.775, 446.225 403, 446.500 403 C 446.775 403, 447 402.775, 447 402.500 C 447 402.225, 446.775 402, 446.500 402 C 446.225 402, 446 402.225, 446 402.500 M 212 403.500 C 212 403.775, 212.225 404, 212.500 404 C 212.775 404, 213 403.775, 213 403.500 C 213 403.225, 212.775 403, 212.500 403 C 212.225 403, 212 403.225, 212 403.500 M 675 403.500 C 675 403.775, 675.225 404, 675.500 404 C 675.775 404, 676 403.775, 676 403.500 C 676 403.225, 675.775 403, 675.500 403 C 675.225 403, 675 403.225, 675 403.500 M 676 405.500 C 676 405.775, 676.225 406, 676.500 406 C 676.775 406, 677 405.775, 677 405.500 C 677 405.225, 676.775 405, 676.500 405 C 676.225 405, 676 405.225, 676 405.500 M 395.405 411.155 C 394.962 411.870, 395.130 412.038, 395.845 411.595 C 396.480 411.203, 397 410.684, 397 410.441 C 397 410.198, 396.802 410, 396.559 410 C 396.316 410, 395.797 410.520, 395.405 411.155 M 450 410.500 C 450 410.775, 450.225 411, 450.500 411 C 450.775 411, 451 410.775, 451 410.500 C 451 410.225, 450.775 410, 450.500 410 C 450.225 410, 450 410.225, 450 410.500 M 492 410.500 C 492 410.775, 492.225 411, 492.500 411 C 492.775 411, 493 410.775, 493 410.500 C 493 410.225, 492.775 410, 492.500 410 C 492.225 410, 492 410.225, 492 410.500 M 435 413.500 C 435 413.775, 435.225 414, 435.500 414 C 435.775 414, 436 413.775, 436 413.500 C 436 413.225, 435.775 413, 435.500 413 C 435.225 413, 435 413.225, 435 413.500 M 452 413.500 C 452 413.775, 452.225 414, 452.500 414 C 452.775 414, 453 413.775, 453 413.500 C 453 413.225, 452.775 413, 452.500 413 C 452.225 413, 452 413.225, 452 413.500 M 680 413.500 C 680 413.775, 680.225 414, 680.500 414 C 680.775 414, 681 413.775, 681 413.500 C 681 413.225, 680.775 413, 680.500 413 C 680.225 413, 680 413.225, 680 413.500 M 453 415.500 C 453 415.775, 453.225 416, 453.500 416 C 453.775 416, 454 415.775, 454 415.500 C 454 415.225, 453.775 415, 453.500 415 C 453.225 415, 453 415.225, 453 415.500 M 681 416.500 C 681 416.775, 681.225 417, 681.500 417 C 681.775 417, 682 416.775, 682 416.500 C 682 416.225, 681.775 416, 681.500 416 C 681.225 416, 681 416.225, 681 416.500 M 390 417.500 C 390 417.775, 390.225 418, 390.500 418 C 390.775 418, 391 417.775, 391 417.500 C 391 417.225, 390.775 417, 390.500 417 C 390.225 417, 390 417.225, 390 417.500 M 432 418.500 C 432 418.775, 432.225 419, 432.500 419 C 432.775 419, 433 418.775, 433 418.500 C 433 418.225, 432.775 418, 432.500 418 C 432.225 418, 432 418.225, 432 418.500 M 456 420.500 C 456 420.775, 456.225 421, 456.500 421 C 456.775 421, 457 420.775, 457 420.500 C 457 420.225, 456.775 420, 456.500 420 C 456.225 420, 456 420.225, 456 420.500 M 205 421.500 C 205 421.775, 205.225 422, 205.500 422 C 205.775 422, 206 421.775, 206 421.500 C 206 421.225, 205.775 421, 205.500 421 C 205.225 421, 205 421.225, 205 421.500 M 682 422.500 C 682 422.775, 682.225 423, 682.500 423 C 682.775 423, 683 422.775, 683 422.500 C 683 422.225, 682.775 422, 682.500 422 C 682.225 422, 682 422.225, 682 422.500 M 428 424.500 C 428 424.775, 428.225 425, 428.500 425 C 428.775 425, 429 424.775, 429 424.500 C 429 424.225, 428.775 424, 428.500 424 C 428.225 424, 428 424.225, 428 424.500 M 506 424.500 C 506 424.775, 506.225 425, 506.500 425 C 506.775 425, 507 424.775, 507 424.500 C 507 424.225, 506.775 424, 506.500 424 C 506.225 424, 506 424.225, 506 424.500 M 460 425.500 C 460 425.775, 460.225 426, 460.500 426 C 460.775 426, 461 425.775, 461 425.500 C 461 425.225, 460.775 425, 460.500 425 C 460.225 425, 460 425.225, 460 425.500 M 204 427.500 C 204 427.775, 204.225 428, 204.500 428 C 204.775 428, 205 427.775, 205 427.500 C 205 427.225, 204.775 427, 204.500 427 C 204.225 427, 204 427.225, 204 427.500 M 509 427.500 C 509 427.775, 509.225 428, 509.500 428 C 509.775 428, 510 427.775, 510 427.500 C 510 427.225, 509.775 427, 509.500 427 C 509.225 427, 509 427.225, 509 427.500 M 683.158 430 C 683.158 431.375, 683.385 431.938, 683.662 431.250 C 683.940 430.563, 683.940 429.438, 683.662 428.750 C 683.385 428.063, 683.158 428.625, 683.158 430 M 372 432.500 C 372 432.775, 372.225 433, 372.500 433 C 372.775 433, 373 432.775, 373 432.500 C 373 432.225, 372.775 432, 372.500 432 C 372.225 432, 372 432.225, 372 432.500 M 515 432.500 C 515 432.775, 515.225 433, 515.500 433 C 515.775 433, 516 432.775, 516 432.500 C 516 432.225, 515.775 432, 515.500 432 C 515.225 432, 515 432.225, 515 432.500 M 466 433.500 C 466 433.775, 466.225 434, 466.500 434 C 466.775 434, 467 433.775, 467 433.500 C 467 433.225, 466.775 433, 466.500 433 C 466.225 433, 466 433.225, 466 433.500 M 683 435.500 C 683 435.775, 683.225 436, 683.500 436 C 683.775 436, 684 435.775, 684 435.500 C 684 435.225, 683.775 435, 683.500 435 C 683.225 435, 683 435.225, 683 435.500 M 364.872 437.750 C 363.629 439.336, 363.664 439.371, 365.250 438.128 C 366.212 437.373, 367 436.585, 367 436.378 C 367 436.170, 366.830 436, 366.622 436 C 366.415 436, 365.627 436.788, 364.872 437.750 M 521 437.500 C 521 437.775, 521.225 438, 521.500 438 C 521.775 438, 522 437.775, 522 437.500 C 522 437.225, 521.775 437, 521.500 437 C 521.225 437, 521 437.225, 521 437.500 M 683.158 439 C 683.158 440.375, 683.385 440.938, 683.662 440.250 C 683.940 439.563, 683.940 438.438, 683.662 437.750 C 683.385 437.063, 683.158 437.625, 683.158 439 M 417 438.500 C 417 438.775, 417.225 439, 417.500 439 C 417.775 439, 418 438.775, 418 438.500 C 418 438.225, 417.775 438, 417.500 438 C 417.225 438, 417 438.225, 417 438.500 M 523 438.500 C 523 438.775, 523.225 439, 523.500 439 C 523.775 439, 524 438.775, 524 438.500 C 524 438.225, 523.775 438, 523.500 438 C 523.225 438, 523 438.225, 523 438.500 M 529.500 443 C 529.840 443.550, 530.343 444, 530.618 444 C 530.893 444, 530.840 443.550, 530.500 443 C 530.160 442.450, 529.657 442, 529.382 442 C 529.107 442, 529.160 442.450, 529.500 443 M 356.405 444.155 C 355.962 444.870, 356.130 445.038, 356.845 444.595 C 357.480 444.203, 358 443.684, 358 443.441 C 358 443.198, 357.802 443, 357.559 443 C 357.316 443, 356.797 443.520, 356.405 444.155 M 204 445.500 C 204 445.775, 204.225 446, 204.500 446 C 204.775 446, 205 445.775, 205 445.500 C 205 445.225, 204.775 445, 204.500 445 C 204.225 445, 204 445.225, 204 445.500 M 479 447.500 C 479 447.775, 479.225 448, 479.500 448 C 479.775 448, 480 447.775, 480 447.500 C 480 447.225, 479.775 447, 479.500 447 C 479.225 447, 479 447.225, 479 447.500 M 349 448.500 C 349 448.775, 349.225 449, 349.500 449 C 349.775 449, 350 448.775, 350 448.500 C 350 448.225, 349.775 448, 349.500 448 C 349.225 448, 349 448.225, 349 448.500 M 405.872 449.750 C 404.629 451.336, 404.664 451.371, 406.250 450.128 C 407.212 449.373, 408 448.585, 408 448.378 C 408 448.170, 407.830 448, 407.622 448 C 407.415 448, 406.627 448.788, 405.872 449.750 M 205 449.500 C 205 449.775, 205.225 450, 205.500 450 C 205.775 450, 206 449.775, 206 449.500 C 206 449.225, 205.775 449, 205.500 449 C 205.225 449, 205 449.225, 205 449.500 M 206 451.500 C 206 451.775, 206.225 452, 206.500 452 C 206.775 452, 207 451.775, 207 451.500 C 207 451.225, 206.775 451, 206.500 451 C 206.225 451, 206 451.225, 206 451.500 M 345 451.500 C 345 451.775, 345.225 452, 345.500 452 C 345.775 452, 346 451.775, 346 451.500 C 346 451.225, 345.775 451, 345.500 451 C 345.225 451, 345 451.225, 345 451.500 M 542 451.500 C 542 451.775, 542.225 452, 542.500 452 C 542.775 452, 543 451.775, 543 451.500 C 543 451.225, 542.775 451, 542.500 451 C 542.225 451, 542 451.225, 542 451.500 M 343 452.500 C 343 452.775, 343.225 453, 343.500 453 C 343.775 453, 344 452.775, 344 452.500 C 344 452.225, 343.775 452, 343.500 452 C 343.225 452, 343 452.225, 343 452.500 M 680 452.500 C 680 452.775, 680.225 453, 680.500 453 C 680.775 453, 681 452.775, 681 452.500 C 681 452.225, 680.775 452, 680.500 452 C 680.225 452, 680 452.225, 680 452.500 M 402 453.500 C 402 453.775, 402.225 454, 402.500 454 C 402.775 454, 403 453.775, 403 453.500 C 403 453.225, 402.775 453, 402.500 453 C 402.225 453, 402 453.225, 402 453.500 M 548 454.500 C 548 454.775, 548.225 455, 548.500 455 C 548.775 455, 549 454.775, 549 454.500 C 549 454.225, 548.775 454, 548.500 454 C 548.225 454, 548 454.225, 548 454.500 M 337 455.500 C 337 455.775, 337.225 456, 337.500 456 C 337.775 456, 338 455.775, 338 455.500 C 338 455.225, 337.775 455, 337.500 455 C 337.225 455, 337 455.225, 337 455.500 M 487 455.500 C 487 455.775, 487.225 456, 487.500 456 C 487.775 456, 488 455.775, 488 455.500 C 488 455.225, 487.775 455, 487.500 455 C 487.225 455, 487 455.225, 487 455.500 M 550 455.500 C 550 455.775, 550.225 456, 550.500 456 C 550.775 456, 551 455.775, 551 455.500 C 551 455.225, 550.775 455, 550.500 455 C 550.225 455, 550 455.225, 550 455.500 M 335 456.500 C 335 456.775, 335.225 457, 335.500 457 C 335.775 457, 336 456.775, 336 456.500 C 336 456.225, 335.775 456, 335.500 456 C 335.225 456, 335 456.225, 335 456.500 M 398 456.500 C 398 456.775, 398.225 457, 398.500 457 C 398.775 457, 399 456.775, 399 456.500 C 399 456.225, 398.775 456, 398.500 456 C 398.225 456, 398 456.225, 398 456.500 M 333 457.500 C 333 457.775, 333.225 458, 333.500 458 C 333.775 458, 334 457.775, 334 457.500 C 334 457.225, 333.775 457, 333.500 457 C 333.225 457, 333 457.225, 333 457.500 M 490 457.500 C 490 457.775, 490.225 458, 490.500 458 C 490.775 458, 491 457.775, 491 457.500 C 491 457.225, 490.775 457, 490.500 457 C 490.225 457, 490 457.225, 490 457.500 M 554 457.500 C 554 457.775, 554.225 458, 554.500 458 C 554.775 458, 555 457.775, 555 457.500 C 555 457.225, 554.775 457, 554.500 457 C 554.225 457, 554 457.225, 554 457.500 M 677 459.500 C 677 459.775, 677.225 460, 677.500 460 C 677.775 460, 678 459.775, 678 459.500 C 678 459.225, 677.775 459, 677.500 459 C 677.225 459, 677 459.225, 677 459.500 M 326 460.500 C 326 460.775, 326.225 461, 326.500 461 C 326.775 461, 327 460.775, 327 460.500 C 327 460.225, 326.775 460, 326.500 460 C 326.225 460, 326 460.225, 326 460.500 M 560 460.500 C 560 460.775, 560.225 461, 560.500 461 C 560.775 461, 561 460.775, 561 460.500 C 561 460.225, 560.775 460, 560.500 460 C 560.225 460, 560 460.225, 560 460.500 M 211 461.500 C 211 461.775, 211.225 462, 211.500 462 C 211.775 462, 212 461.775, 212 461.500 C 212 461.225, 211.775 461, 211.500 461 C 211.225 461, 211 461.225, 211 461.500 M 324 461.500 C 324 461.775, 324.225 462, 324.500 462 C 324.775 462, 325 461.775, 325 461.500 C 325 461.225, 324.775 461, 324.500 461 C 324.225 461, 324 461.225, 324 461.500 M 562 461.500 C 562 461.775, 562.225 462, 562.500 462 C 562.775 462, 563 461.775, 563 461.500 C 563 461.225, 562.775 461, 562.500 461 C 562.225 461, 562 461.225, 562 461.500 M 320 463.500 C 320 463.775, 320.225 464, 320.500 464 C 320.775 464, 321 463.775, 321 463.500 C 321 463.225, 320.775 463, 320.500 463 C 320.225 463, 320 463.225, 320 463.500 M 567 463.500 C 567 463.775, 567.225 464, 567.500 464 C 567.775 464, 568 463.775, 568 463.500 C 568 463.225, 567.775 463, 567.500 463 C 567.225 463, 567 463.225, 567 463.500 M 674 463.500 C 674 463.775, 674.225 464, 674.500 464 C 674.775 464, 675 463.775, 675 463.500 C 675 463.225, 674.775 463, 674.500 463 C 674.225 463, 674 463.225, 674 463.500 M 317 464.500 C 317 464.775, 317.225 465, 317.500 465 C 317.775 465, 318 464.775, 318 464.500 C 318 464.225, 317.775 464, 317.500 464 C 317.225 464, 317 464.225, 317 464.500 M 387.405 465.155 C 386.962 465.870, 387.130 466.038, 387.845 465.595 C 388.480 465.203, 389 464.684, 389 464.441 C 389 464.198, 388.802 464, 388.559 464 C 388.316 464, 387.797 464.520, 387.405 465.155 M 572 465.500 C 572 465.775, 572.225 466, 572.500 466 C 572.775 466, 573 465.775, 573 465.500 C 573 465.225, 572.775 465, 572.500 465 C 572.225 465, 572 465.225, 572 465.500 M 216.500 467 C 216.840 467.550, 217.343 468, 217.618 468 C 217.893 468, 217.840 467.550, 217.500 467 C 217.160 466.450, 216.657 466, 216.382 466 C 216.107 466, 216.160 466.450, 216.500 467 M 574.333 466.667 C 574.700 467.033, 575.300 467.033, 575.667 466.667 C 576.033 466.300, 575.733 466, 575 466 C 574.267 466, 573.967 466.300, 574.333 466.667 M 309 467.500 C 309 467.775, 309.225 468, 309.500 468 C 309.775 468, 310 467.775, 310 467.500 C 310 467.225, 309.775 467, 309.500 467 C 309.225 467, 309 467.225, 309 467.500 M 384 467.500 C 384 467.775, 384.225 468, 384.500 468 C 384.775 468, 385 467.775, 385 467.500 C 385 467.225, 384.775 467, 384.500 467 C 384.225 467, 384 467.225, 384 467.500 M 577 467.500 C 577 467.775, 577.225 468, 577.500 468 C 577.775 468, 578 467.775, 578 467.500 C 578 467.225, 577.775 467, 577.500 467 C 577.225 467, 577 467.225, 577 467.500 M 668.405 468.155 C 667.962 468.870, 668.130 469.038, 668.845 468.595 C 669.480 468.203, 670 467.684, 670 467.441 C 670 467.198, 669.802 467, 669.559 467 C 669.316 467, 668.797 467.520, 668.405 468.155 M 500 468.500 C 500 468.775, 500.225 469, 500.500 469 C 500.775 469, 501 468.775, 501 468.500 C 501 468.225, 500.775 468, 500.500 468 C 500.225 468, 500 468.225, 500 468.500 M 579 468.500 C 579 468.775, 579.225 469, 579.500 469 C 579.775 469, 580 468.775, 580 468.500 C 580 468.225, 579.775 468, 579.500 468 C 579.225 468, 579 468.225, 579 468.500 M 303 469.500 C 303 469.775, 303.225 470, 303.500 470 C 303.775 470, 304 469.775, 304 469.500 C 304 469.225, 303.775 469, 303.500 469 C 303.225 469, 303 469.225, 303 469.500 M 583 469.500 C 583 469.775, 583.225 470, 583.500 470 C 583.775 470, 584 469.775, 584 469.500 C 584 469.225, 583.775 469, 583.500 469 C 583.225 469, 583 469.225, 583 469.500 M 393 470.500 C 393 470.775, 393.225 471, 393.500 471 C 393.775 471, 394 470.775, 394 470.500 C 394 470.225, 393.775 470, 393.500 470 C 393.225 470, 393 470.225, 393 470.500 M 493 470.500 C 493 470.775, 493.225 471, 493.500 471 C 493.775 471, 494 470.775, 494 470.500 C 494 470.225, 493.775 470, 493.500 470 C 493.225 470, 493 470.225, 493 470.500 M 587 470.500 C 587 470.775, 587.225 471, 587.500 471 C 587.775 471, 588 470.775, 588 470.500 C 588 470.225, 587.775 470, 587.500 470 C 587.225 470, 587 470.225, 587 470.500 M 224 471.500 C 224 471.775, 224.225 472, 224.500 472 C 224.775 472, 225 471.775, 225 471.500 C 225 471.225, 224.775 471, 224.500 471 C 224.225 471, 224 471.225, 224 471.500 M 396 471.500 C 396 471.775, 396.225 472, 396.500 472 C 396.775 472, 397 471.775, 397 471.500 C 397 471.225, 396.775 471, 396.500 471 C 396.225 471, 396 471.225, 396 471.500 M 591 471.500 C 591 471.775, 591.225 472, 591.500 472 C 591.775 472, 592 471.775, 592 471.500 C 592 471.225, 591.775 471, 591.500 471 C 591.225 471, 591 471.225, 591 471.500 M 226 472.500 C 226 472.775, 226.225 473, 226.500 473 C 226.775 473, 227 472.775, 227 472.500 C 227 472.225, 226.775 472, 226.500 472 C 226.225 472, 226 472.225, 226 472.500 M 292 472.500 C 292 472.775, 292.225 473, 292.500 473 C 292.775 473, 293 472.775, 293 472.500 C 293 472.225, 292.775 472, 292.500 472 C 292.225 472, 292 472.225, 292 472.500 M 400 472.500 C 400 472.775, 400.225 473, 400.500 473 C 400.775 473, 401 472.775, 401 472.500 C 401 472.225, 400.775 472, 400.500 472 C 400.225 472, 400 472.225, 400 472.500 M 487 472.500 C 487 472.775, 487.225 473, 487.500 473 C 487.775 473, 488 472.775, 488 472.500 C 488 472.225, 487.775 472, 487.500 472 C 487.225 472, 487 472.225, 487 472.500 M 661 472.500 C 661 472.775, 661.225 473, 661.500 473 C 661.775 473, 662 472.775, 662 472.500 C 662 472.225, 661.775 472, 661.500 472 C 661.225 472, 661 472.225, 661 472.500 M 229 473.500 C 229 473.775, 229.225 474, 229.500 474 C 229.775 474, 230 473.775, 230 473.500 C 230 473.225, 229.775 473, 229.500 473 C 229.225 473, 229 473.225, 229 473.500 M 404 473.500 C 404 473.775, 404.225 474, 404.500 474 C 404.775 474, 405 473.775, 405 473.500 C 405 473.225, 404.775 473, 404.500 473 C 404.225 473, 404 473.225, 404 473.500 M 483 473.500 C 483 473.775, 483.225 474, 483.500 474 C 483.775 474, 484 473.775, 484 473.500 C 484 473.225, 483.775 473, 483.500 473 C 483.225 473, 483 473.225, 483 473.500 M 598 473.500 C 598 473.775, 598.225 474, 598.500 474 C 598.775 474, 599 473.775, 599 473.500 C 599 473.225, 598.775 473, 598.500 473 C 598.225 473, 598 473.225, 598 473.500 M 658 473.500 C 658 473.775, 658.225 474, 658.500 474 C 658.775 474, 659 473.775, 659 473.500 C 659 473.225, 658.775 473, 658.500 473 C 658.225 473, 658 473.225, 658 473.500 M 232 474.500 C 232 474.775, 232.225 475, 232.500 475 C 232.775 475, 233 474.775, 233 474.500 C 233 474.225, 232.775 474, 232.500 474 C 232.225 474, 232 474.225, 232 474.500 M 409 474.500 C 409 474.775, 409.225 475, 409.500 475 C 409.775 475, 410 474.775, 410 474.500 C 410 474.225, 409.775 474, 409.500 474 C 409.225 474, 409 474.225, 409 474.500 M 477.333 474.667 C 477.700 475.033, 478.300 475.033, 478.667 474.667 C 479.033 474.300, 478.733 474, 478 474 C 477.267 474, 476.967 474.300, 477.333 474.667 M 654 474.500 C 654 474.775, 654.225 475, 654.500 475 C 654.775 475, 655 474.775, 655 474.500 C 655 474.225, 654.775 474, 654.500 474 C 654.225 474, 654 474.225, 654 474.500 M 236 475.500 C 236 475.775, 236.225 476, 236.500 476 C 236.775 476, 237 475.775, 237 475.500 C 237 475.225, 236.775 475, 236.500 475 C 236.225 475, 236 475.225, 236 475.500 M 277 475.500 C 277 475.775, 277.225 476, 277.500 476 C 277.775 476, 278 475.775, 278 475.500 C 278 475.225, 277.775 475, 277.500 475 C 277.225 475, 277 475.225, 277 475.500 M 414 475.500 C 414 475.775, 414.225 476, 414.500 476 C 414.775 476, 415 475.775, 415 475.500 C 415 475.225, 414.775 475, 414.500 475 C 414.225 475, 414 475.225, 414 475.500 M 608 475.500 C 608 475.775, 608.225 476, 608.500 476 C 608.775 476, 609 475.775, 609 475.500 C 609 475.225, 608.775 475, 608.500 475 C 608.225 475, 608 475.225, 608 475.500 M 239 476.500 C 239 476.775, 239.225 477, 239.500 477 C 239.775 477, 240 476.775, 240 476.500 C 240 476.225, 239.775 476, 239.500 476 C 239.225 476, 239 476.225, 239 476.500 M 418 476.500 C 418 476.775, 418.225 477, 418.500 477 C 418.775 477, 419 476.775, 419 476.500 C 419 476.225, 418.775 476, 418.500 476 C 418.225 476, 418 476.225, 418 476.500 M 467 476.500 C 467 476.775, 467.225 477, 467.500 477 C 467.775 477, 468 476.775, 468 476.500 C 468 476.225, 467.775 476, 467.500 476 C 467.225 476, 467 476.225, 467 476.500 M 615 476.500 C 615 476.775, 615.225 477, 615.500 477 C 615.775 477, 616 476.775, 616 476.500 C 616 476.225, 615.775 476, 615.500 476 C 615.225 476, 615 476.225, 615 476.500 M 647 476.500 C 647 476.775, 647.225 477, 647.500 477 C 647.775 477, 648 476.775, 648 476.500 C 648 476.225, 647.775 476, 647.500 476 C 647.225 476, 647 476.225, 647 476.500 M 250.768 477.725 C 252.565 477.947, 255.265 477.943, 256.768 477.715 C 258.271 477.486, 256.800 477.304, 253.500 477.310 C 250.200 477.315, 248.971 477.502, 250.768 477.725 M 629.333 477.667 C 629.700 478.033, 630.300 478.033, 630.667 477.667 C 631.033 477.300, 630.733 477, 630 477 C 629.267 477, 628.967 477.300, 629.333 477.667 M 635 477.500 C 635 477.775, 635.225 478, 635.500 478 C 635.775 478, 636 477.775, 636 477.500 C 636 477.225, 635.775 477, 635.500 477 C 635.225 477, 635 477.225, 635 477.500 M 439.264 478.718 C 440.784 478.947, 443.034 478.941, 444.264 478.704 C 445.494 478.467, 444.250 478.279, 441.500 478.286 C 438.750 478.294, 437.744 478.488, 439.264 478.718 M 352 484.500 C 352 484.775, 352.225 485, 352.500 485 C 352.775 485, 353 484.775, 353 484.500 C 353 484.225, 352.775 484, 352.500 484 C 352.225 484, 352 484.225, 352 484.500 M 355 485.500 C 355 485.775, 355.225 486, 355.500 486 C 355.775 486, 356 485.775, 356 485.500 C 356 485.225, 355.775 485, 355.500 485 C 355.225 485, 355 485.225, 355 485.500 M 528 485.500 C 528 485.775, 528.225 486, 528.500 486 C 528.775 486, 529 485.775, 529 485.500 C 529 485.225, 528.775 485, 528.500 485 C 528.225 485, 528 485.225, 528 485.500 M 535 485.500 C 535 485.775, 535.225 486, 535.500 486 C 535.775 486, 536 485.775, 536 485.500 C 536 485.225, 535.775 485, 535.500 485 C 535.225 485, 535 485.225, 535 485.500 M 357 486.500 C 357 486.775, 357.225 487, 357.500 487 C 357.775 487, 358 486.775, 358 486.500 C 358 486.225, 357.775 486, 357.500 486 C 357.225 486, 357 486.225, 357 486.500 M 359 487.500 C 359 487.775, 359.225 488, 359.500 488 C 359.775 488, 360 487.775, 360 487.500 C 360 487.225, 359.775 487, 359.500 487 C 359.225 487, 359 487.225, 359 487.500 M 523.405 488.155 C 522.962 488.870, 523.130 489.038, 523.845 488.595 C 524.480 488.203, 525 487.684, 525 487.441 C 525 487.198, 524.802 487, 524.559 487 C 524.316 487, 523.797 487.520, 523.405 488.155 M 343 488.500 C 343 488.775, 343.225 489, 343.500 489 C 343.775 489, 344 488.775, 344 488.500 C 344 488.225, 343.775 488, 343.500 488 C 343.225 488, 343 488.225, 343 488.500 M 542 488.500 C 542 488.775, 542.225 489, 542.500 489 C 542.775 489, 543 488.775, 543 488.500 C 543 488.225, 542.775 488, 542.500 488 C 542.225 488, 542 488.225, 542 488.500 M 363 489.500 C 363 489.775, 363.225 490, 363.500 490 C 363.775 490, 364 489.775, 364 489.500 C 364 489.225, 363.775 489, 363.500 489 C 363.225 489, 363 489.225, 363 489.500 M 339 490.500 C 339 490.775, 339.225 491, 339.500 491 C 339.775 491, 340 490.775, 340 490.500 C 340 490.225, 339.775 490, 339.500 490 C 339.225 490, 339 490.225, 339 490.500 M 366 490.500 C 366 490.775, 366.225 491, 366.500 491 C 366.775 491, 367 490.775, 367 490.500 C 367 490.225, 366.775 490, 366.500 490 C 366.225 490, 366 490.225, 366 490.500 M 368 491.500 C 368 491.775, 368.225 492, 368.500 492 C 368.775 492, 369 491.775, 369 491.500 C 369 491.225, 368.775 491, 368.500 491 C 368.225 491, 368 491.225, 368 491.500 M 335 492.500 C 335 492.775, 335.225 493, 335.500 493 C 335.775 493, 336 492.775, 336 492.500 C 336 492.225, 335.775 492, 335.500 492 C 335.225 492, 335 492.225, 335 492.500 M 333 493.500 C 333 493.775, 333.225 494, 333.500 494 C 333.775 494, 334 493.775, 334 493.500 C 334 493.225, 333.775 493, 333.500 493 C 333.225 493, 333 493.225, 333 493.500 M 373 493.500 C 373 493.775, 373.225 494, 373.500 494 C 373.775 494, 374 493.775, 374 493.500 C 374 493.225, 373.775 493, 373.500 493 C 373.225 493, 373 493.225, 373 493.500 M 512 493.500 C 512 493.775, 512.225 494, 512.500 494 C 512.775 494, 513 493.775, 513 493.500 C 513 493.225, 512.775 493, 512.500 493 C 512.225 493, 512 493.225, 512 493.500 M 553 493.500 C 553 493.775, 553.225 494, 553.500 494 C 553.775 494, 554 493.775, 554 493.500 C 554 493.225, 553.775 493, 553.500 493 C 553.225 493, 553 493.225, 553 493.500 M 330.405 495.155 C 329.962 495.870, 330.130 496.038, 330.845 495.595 C 331.480 495.203, 332 494.684, 332 494.441 C 332 494.198, 331.802 494, 331.559 494 C 331.316 494, 330.797 494.520, 330.405 495.155 M 376 494.500 C 376 494.775, 376.225 495, 376.500 495 C 376.775 495, 377 494.775, 377 494.500 C 377 494.225, 376.775 494, 376.500 494 C 376.225 494, 376 494.225, 376 494.500 M 509 494.500 C 509 494.775, 509.225 495, 509.500 495 C 509.775 495, 510 494.775, 510 494.500 C 510 494.225, 509.775 494, 509.500 494 C 509.225 494, 509 494.225, 509 494.500 M 378 495.500 C 378 495.775, 378.225 496, 378.500 496 C 378.775 496, 379 495.775, 379 495.500 C 379 495.225, 378.775 495, 378.500 495 C 378.225 495, 378 495.225, 378 495.500 M 506 495.500 C 506 495.775, 506.225 496, 506.500 496 C 506.775 496, 507 495.775, 507 495.500 C 507 495.225, 506.775 495, 506.500 495 C 506.225 495, 506 495.225, 506 495.500 M 556 495.500 C 556 495.775, 556.225 496, 556.500 496 C 556.775 496, 557 495.775, 557 495.500 C 557 495.225, 556.775 495, 556.500 495 C 556.225 495, 556 495.225, 556 495.500 M 327.405 497.155 C 326.962 497.870, 327.130 498.038, 327.845 497.595 C 328.480 497.203, 329 496.684, 329 496.441 C 329 496.198, 328.802 496, 328.559 496 C 328.316 496, 327.797 496.520, 327.405 497.155 M 504 496.500 C 504 496.775, 504.225 497, 504.500 497 C 504.775 497, 505 496.775, 505 496.500 C 505 496.225, 504.775 496, 504.500 496 C 504.225 496, 504 496.225, 504 496.500 M 383 497.500 C 383 497.775, 383.225 498, 383.500 498 C 383.775 498, 384 497.775, 384 497.500 C 384 497.225, 383.775 497, 383.500 497 C 383.225 497, 383 497.225, 383 497.500 M 386 498.500 C 386 498.775, 386.225 499, 386.500 499 C 386.775 499, 387 498.775, 387 498.500 C 387 498.225, 386.775 498, 386.500 498 C 386.225 498, 386 498.225, 386 498.500 M 498 498.500 C 498 498.775, 498.225 499, 498.500 499 C 498.775 499, 499 498.775, 499 498.500 C 499 498.225, 498.775 498, 498.500 498 C 498.225 498, 498 498.225, 498 498.500 M 494 499.500 C 494 499.775, 494.225 500, 494.500 500 C 494.775 500, 495 499.775, 495 499.500 C 495 499.225, 494.775 499, 494.500 499 C 494.225 499, 494 499.225, 494 499.500 M 491 500.500 C 491 500.775, 491.225 501, 491.500 501 C 491.775 501, 492 500.775, 492 500.500 C 492 500.225, 491.775 500, 491.500 500 C 491.225 500, 491 500.225, 491 500.500 M 396 501.500 C 396 501.775, 396.225 502, 396.500 502 C 396.775 502, 397 501.775, 397 501.500 C 397 501.225, 396.775 501, 396.500 501 C 396.225 501, 396 501.225, 396 501.500 M 328 502.500 C 328 502.775, 328.225 503, 328.500 503 C 328.775 503, 329 502.775, 329 502.500 C 329 502.225, 328.775 502, 328.500 502 C 328.225 502, 328 502.225, 328 502.500 M 402 502.500 C 402 502.775, 402.225 503, 402.500 503 C 402.775 503, 403 502.775, 403 502.500 C 403 502.225, 402.775 502, 402.500 502 C 402.225 502, 402 502.225, 402 502.500 M 481 502.500 C 481 502.775, 481.225 503, 481.500 503 C 481.775 503, 482 502.775, 482 502.500 C 482 502.225, 481.775 502, 481.500 502 C 481.225 502, 481 502.225, 481 502.500 M 409 503.500 C 409 503.775, 409.225 504, 409.500 504 C 409.775 504, 410 503.775, 410 503.500 C 410 503.225, 409.775 503, 409.500 503 C 409.225 503, 409 503.225, 409 503.500 M 414 504.500 C 414 504.775, 414.225 505, 414.500 505 C 414.775 505, 415 504.775, 415 504.500 C 415 504.225, 414.775 504, 414.500 504 C 414.225 504, 414 504.225, 414 504.500 M 470 504.500 C 470 504.775, 470.225 505, 470.500 505 C 470.775 505, 471 504.775, 471 504.500 C 471 504.225, 470.775 504, 470.500 504 C 470.225 504, 470 504.225, 470 504.500 M 419 505.500 C 419 505.775, 419.225 506, 419.500 506 C 419.775 506, 420 505.775, 420 505.500 C 420 505.225, 419.775 505, 419.500 505 C 419.225 505, 419 505.225, 419 505.500 M 465 505.500 C 465 505.775, 465.225 506, 465.500 506 C 465.775 506, 466 505.775, 466 505.500 C 466 505.225, 465.775 505, 465.500 505 C 465.225 505, 465 505.225, 465 505.500 M 432 506.500 C 432 506.775, 432.225 507, 432.500 507 C 432.775 507, 433 506.775, 433 506.500 C 433 506.225, 432.775 506, 432.500 506 C 432.225 506, 432 506.225, 432 506.500 M 452 506.500 C 452 506.775, 452.225 507, 452.500 507 C 452.775 507, 453 506.775, 453 506.500 C 453 506.225, 452.775 506, 452.500 506 C 452.225 506, 452 506.225, 452 506.500 M 556 510.500 C 556 510.775, 556.225 511, 556.500 511 C 556.775 511, 557 510.775, 557 510.500 C 557 510.225, 556.775 510, 556.500 510 C 556.225 510, 556 510.225, 556 510.500 M 555 513.500 C 555 513.775, 555.225 514, 555.500 514 C 555.775 514, 556 513.775, 556 513.500 C 556 513.225, 555.775 513, 555.500 513 C 555.225 513, 555 513.225, 555 513.500 M 332 516.500 C 332 516.775, 332.225 517, 332.500 517 C 332.775 517, 333 516.775, 333 516.500 C 333 516.225, 332.775 516, 332.500 516 C 332.225 516, 332 516.225, 332 516.500 M 333 518.500 C 333 518.775, 333.225 519, 333.500 519 C 333.775 519, 334 518.775, 334 518.500 C 334 518.225, 333.775 518, 333.500 518 C 333.225 518, 333 518.225, 333 518.500 M 552 520.500 C 552 520.775, 552.225 521, 552.500 521 C 552.775 521, 553 520.775, 553 520.500 C 553 520.225, 552.775 520, 552.500 520 C 552.225 520, 552 520.225, 552 520.500 M 335 522.500 C 335 522.775, 335.225 523, 335.500 523 C 335.775 523, 336 522.775, 336 522.500 C 336 522.225, 335.775 522, 335.500 522 C 335.225 522, 335 522.225, 335 522.500 M 336 524.500 C 336 524.775, 336.225 525, 336.500 525 C 336.775 525, 337 524.775, 337 524.500 C 337 524.225, 336.775 524, 336.500 524 C 336.225 524, 336 524.225, 336 524.500 M 549 526.500 C 549 526.775, 549.225 527, 549.500 527 C 549.775 527, 550 526.775, 550 526.500 C 550 526.225, 549.775 526, 549.500 526 C 549.225 526, 549 526.225, 549 526.500 M 339 531.500 C 339 531.775, 339.225 532, 339.500 532 C 339.775 532, 340 531.775, 340 531.500 C 340 531.225, 339.775 531, 339.500 531 C 339.225 531, 339 531.225, 339 531.500 M 545 532.500 C 545 532.775, 545.225 533, 545.500 533 C 545.775 533, 546 532.775, 546 532.500 C 546 532.225, 545.775 532, 545.500 532 C 545.225 532, 545 532.225, 545 532.500 M 543 533.500 C 543 533.775, 543.225 534, 543.500 534 C 543.775 534, 544 533.775, 544 533.500 C 544 533.225, 543.775 533, 543.500 533 C 543.225 533, 543 533.225, 543 533.500 M 345 535.500 C 345 535.775, 345.225 536, 345.500 536 C 345.775 536, 346 535.775, 346 535.500 C 346 535.225, 345.775 535, 345.500 535 C 345.225 535, 345 535.225, 345 535.500 M 347 536.500 C 347 536.775, 347.225 537, 347.500 537 C 347.775 537, 348 536.775, 348 536.500 C 348 536.225, 347.775 536, 347.500 536 C 347.225 536, 347 536.225, 347 536.500 M 350 538.500 C 350 538.775, 350.225 539, 350.500 539 C 350.775 539, 351 538.775, 351 538.500 C 351 538.225, 350.775 538, 350.500 538 C 350.225 538, 350 538.225, 350 538.500 M 534.405 539.155 C 533.962 539.870, 534.130 540.038, 534.845 539.595 C 535.480 539.203, 536 538.684, 536 538.441 C 536 538.198, 535.802 538, 535.559 538 C 535.316 538, 534.797 538.520, 534.405 539.155 M 529 541.500 C 529 541.775, 529.225 542, 529.500 542 C 529.775 542, 530 541.775, 530 541.500 C 530 541.225, 529.775 541, 529.500 541 C 529.225 541, 529 541.225, 529 541.500 M 526 542.500 C 526 542.775, 526.225 543, 526.500 543 C 526.775 543, 527 542.775, 527 542.500 C 527 542.225, 526.775 542, 526.500 542 C 526.225 542, 526 542.225, 526 542.500 M 524 543.500 C 524 543.775, 524.225 544, 524.500 544 C 524.775 544, 525 543.775, 525 543.500 C 525 543.225, 524.775 543, 524.500 543 C 524.225 543, 524 543.225, 524 543.500 M 364 544.500 C 364 544.775, 364.225 545, 364.500 545 C 364.775 545, 365 544.775, 365 544.500 C 365 544.225, 364.775 544, 364.500 544 C 364.225 544, 364 544.225, 364 544.500 M 367 545.500 C 367 545.775, 367.225 546, 367.500 546 C 367.775 546, 368 545.775, 368 545.500 C 368 545.225, 367.775 545, 367.500 545 C 367.225 545, 367 545.225, 367 545.500 M 370 546.500 C 370 546.775, 370.225 547, 370.500 547 C 370.775 547, 371 546.775, 371 546.500 C 371 546.225, 370.775 546, 370.500 546 C 370.225 546, 370 546.225, 370 546.500 M 516 546.500 C 516 546.775, 516.225 547, 516.500 547 C 516.775 547, 517 546.775, 517 546.500 C 517 546.225, 516.775 546, 516.500 546 C 516.225 546, 516 546.225, 516 546.500 M 373 547.500 C 373 547.775, 373.225 548, 373.500 548 C 373.775 548, 374 547.775, 374 547.500 C 374 547.225, 373.775 547, 373.500 547 C 373.225 547, 373 547.225, 373 547.500 M 375 548.500 C 375 548.775, 375.225 549, 375.500 549 C 375.775 549, 376 548.775, 376 548.500 C 376 548.225, 375.775 548, 375.500 548 C 375.225 548, 375 548.225, 375 548.500 M 510 548.500 C 510 548.775, 510.225 549, 510.500 549 C 510.775 549, 511 548.775, 511 548.500 C 511 548.225, 510.775 548, 510.500 548 C 510.225 548, 510 548.225, 510 548.500 M 390 552.500 C 390 552.775, 390.225 553, 390.500 553 C 390.775 553, 391 552.775, 391 552.500 C 391 552.225, 390.775 552, 390.500 552 C 390.225 552, 390 552.225, 390 552.500 M 495 552.500 C 495 552.775, 495.225 553, 495.500 553 C 495.775 553, 496 552.775, 496 552.500 C 496 552.225, 495.775 552, 495.500 552 C 495.225 552, 495 552.225, 495 552.500 M 400 554.500 C 400 554.775, 400.225 555, 400.500 555 C 400.775 555, 401 554.775, 401 554.500 C 401 554.225, 400.775 554, 400.500 554 C 400.225 554, 400 554.225, 400 554.500 M 484.813 554.683 C 485.534 554.972, 486.397 554.936, 486.729 554.604 C 487.061 554.272, 486.471 554.036, 485.417 554.079 C 484.252 554.127, 484.015 554.364, 484.813 554.683 M 405 555.500 C 405 555.775, 405.225 556, 405.500 556 C 405.775 556, 406 555.775, 406 555.500 C 406 555.225, 405.775 555, 405.500 555 C 405.225 555, 405 555.225, 405 555.500 M 480 555.500 C 480 555.775, 480.225 556, 480.500 556 C 480.775 556, 481 555.775, 481 555.500 C 481 555.225, 480.775 555, 480.500 555 C 480.225 555, 480 555.225, 480 555.500 M 411 556.500 C 411 556.775, 411.225 557, 411.500 557 C 411.775 557, 412 556.775, 412 556.500 C 412 556.225, 411.775 556, 411.500 556 C 411.225 556, 411 556.225, 411 556.500 M 475 556.500 C 475 556.775, 475.225 557, 475.500 557 C 475.775 557, 476 556.775, 476 556.500 C 476 556.225, 475.775 556, 475.500 556 C 475.225 556, 475 556.225, 475 556.500 M 420 557.500 C 420 557.775, 420.225 558, 420.500 558 C 420.775 558, 421 557.775, 421 557.500 C 421 557.225, 420.775 557, 420.500 557 C 420.225 557, 420 557.225, 420 557.500 M 465.333 557.667 C 465.700 558.033, 466.300 558.033, 466.667 557.667 C 467.033 557.300, 466.733 557, 466 557 C 465.267 557, 464.967 557.300, 465.333 557.667 M 431.250 558.689 C 432.212 558.941, 433.788 558.941, 434.750 558.689 C 435.712 558.438, 434.925 558.232, 433 558.232 C 431.075 558.232, 430.288 558.438, 431.250 558.689 M 441.750 558.723 C 443.538 558.945, 446.462 558.945, 448.250 558.723 C 450.038 558.502, 448.575 558.320, 445 558.320 C 441.425 558.320, 439.962 558.502, 441.750 558.723 M 358.333 574.667 C 358.700 575.033, 359.300 575.033, 359.667 574.667 C 360.033 574.300, 359.733 574, 359 574 C 358.267 574, 357.967 574.300, 358.333 574.667 M 528 575.059 C 528 575.641, 528.450 575.840, 529 575.500 C 529.550 575.160, 530 574.684, 530 574.441 C 530 574.198, 529.550 574, 529 574 C 528.450 574, 528 574.477, 528 575.059 M 526 575.500 C 526 575.775, 526.225 576, 526.500 576 C 526.775 576, 527 575.775, 527 575.500 C 527 575.225, 526.775 575, 526.500 575 C 526.225 575, 526 575.225, 526 575.500 M 359.500 577 C 359.840 577.550, 360.343 578, 360.618 578 C 360.893 578, 360.840 577.550, 360.500 577 C 360.160 576.450, 359.657 576, 359.382 576 C 359.107 576, 359.160 576.450, 359.500 577 M 518 578.500 C 518 578.775, 518.225 579, 518.500 579 C 518.775 579, 519 578.775, 519 578.500 C 519 578.225, 518.775 578, 518.500 578 C 518.225 578, 518 578.225, 518 578.500 M 371 579.500 C 371 579.775, 371.225 580, 371.500 580 C 371.775 580, 372 579.775, 372 579.500 C 372 579.225, 371.775 579, 371.500 579 C 371.225 579, 371 579.225, 371 579.500 M 515 579.500 C 515 579.775, 515.225 580, 515.500 580 C 515.775 580, 516 579.775, 516 579.500 C 516 579.225, 515.775 579, 515.500 579 C 515.225 579, 515 579.225, 515 579.500 M 376 581.500 C 376 581.775, 376.225 582, 376.500 582 C 376.775 582, 377 581.775, 377 581.500 C 377 581.225, 376.775 581, 376.500 581 C 376.225 581, 376 581.225, 376 581.500 M 524 581.500 C 524 581.775, 524.225 582, 524.500 582 C 524.775 582, 525 581.775, 525 581.500 C 525 581.225, 524.775 581, 524.500 581 C 524.225 581, 524 581.225, 524 581.500 M 363 582.500 C 363 582.775, 363.225 583, 363.500 583 C 363.775 583, 364 582.775, 364 582.500 C 364 582.225, 363.775 582, 363.500 582 C 363.225 582, 363 582.225, 363 582.500 M 380 582.500 C 380 582.775, 380.225 583, 380.500 583 C 380.775 583, 381 582.775, 381 582.500 C 381 582.225, 380.775 582, 380.500 582 C 380.225 582, 380 582.225, 380 582.500 M 507 582.500 C 507 582.775, 507.225 583, 507.500 583 C 507.775 583, 508 582.775, 508 582.500 C 508 582.225, 507.775 582, 507.500 582 C 507.225 582, 507 582.225, 507 582.500 M 503 583.500 C 503 583.775, 503.225 584, 503.500 584 C 503.775 584, 504 583.775, 504 583.500 C 504 583.225, 503.775 583, 503.500 583 C 503.225 583, 503 583.225, 503 583.500 M 386 584.500 C 386 584.775, 386.225 585, 386.500 585 C 386.775 585, 387 584.775, 387 584.500 C 387 584.225, 386.775 584, 386.500 584 C 386.225 584, 386 584.225, 386 584.500 M 499 584.500 C 499 584.775, 499.225 585, 499.500 585 C 499.775 585, 500 584.775, 500 584.500 C 500 584.225, 499.775 584, 499.500 584 C 499.225 584, 499 584.225, 499 584.500 M 497 585.500 C 497 585.775, 497.225 586, 497.500 586 C 497.775 586, 498 585.775, 498 585.500 C 498 585.225, 497.775 585, 497.500 585 C 497.225 585, 497 585.225, 497 585.500 M 394.333 586.667 C 394.700 587.033, 395.300 587.033, 395.667 586.667 C 396.033 586.300, 395.733 586, 395 586 C 394.267 586, 393.967 586.300, 394.333 586.667 M 491 586.500 C 491 586.775, 491.225 587, 491.500 587 C 491.775 587, 492 586.775, 492 586.500 C 492 586.225, 491.775 586, 491.500 586 C 491.225 586, 491 586.225, 491 586.500 M 400 587.500 C 400 587.775, 400.225 588, 400.500 588 C 400.775 588, 401 587.775, 401 587.500 C 401 587.225, 400.775 587, 400.500 587 C 400.225 587, 400 587.225, 400 587.500 M 486 587.500 C 486 587.775, 486.225 588, 486.500 588 C 486.775 588, 487 587.775, 487 587.500 C 487 587.225, 486.775 587, 486.500 587 C 486.225 587, 486 587.225, 486 587.500 M 520 587.500 C 520 587.775, 520.225 588, 520.500 588 C 520.775 588, 521 587.775, 521 587.500 C 521 587.225, 520.775 587, 520.500 587 C 520.225 587, 520 587.225, 520 587.500 M 367 588.500 C 367 588.775, 367.225 589, 367.500 589 C 367.775 589, 368 588.775, 368 588.500 C 368 588.225, 367.775 588, 367.500 588 C 367.225 588, 367 588.225, 367 588.500 M 404 588.500 C 404 588.775, 404.225 589, 404.500 589 C 404.775 589, 405 588.775, 405 588.500 C 405 588.225, 404.775 588, 404.500 588 C 404.225 588, 404 588.225, 404 588.500 M 408 589.500 C 408 589.775, 408.225 590, 408.500 590 C 408.775 590, 409 589.775, 409 589.500 C 409 589.225, 408.775 589, 408.500 589 C 408.225 589, 408 589.225, 408 589.500 M 475.813 589.683 C 476.534 589.972, 477.397 589.936, 477.729 589.604 C 478.061 589.272, 477.471 589.036, 476.417 589.079 C 475.252 589.127, 475.015 589.364, 475.813 589.683 M 518 590.500 C 518 590.775, 518.225 591, 518.500 591 C 518.775 591, 519 590.775, 519 590.500 C 519 590.225, 518.775 590, 518.500 590 C 518.225 590, 518 590.225, 518 590.500 M 460 591.500 C 460 591.775, 460.225 592, 460.500 592 C 460.775 592, 461 591.775, 461 591.500 C 461 591.225, 460.775 591, 460.500 591 C 460.225 591, 460 591.225, 460 591.500 M 516 593.500 C 516 593.775, 516.225 594, 516.500 594 C 516.775 594, 517 593.775, 517 593.500 C 517 593.225, 516.775 593, 516.500 593 C 516.225 593, 516 593.225, 516 593.500 M 514.405 596.155 C 513.962 596.870, 514.130 597.038, 514.845 596.595 C 515.480 596.203, 516 595.684, 516 595.441 C 516 595.198, 515.802 595, 515.559 595 C 515.316 595, 514.797 595.520, 514.405 596.155 M 510.405 601.155 C 509.962 601.870, 510.130 602.038, 510.845 601.595 C 511.480 601.203, 512 600.684, 512 600.441 C 512 600.198, 511.802 600, 511.559 600 C 511.316 600, 510.797 600.520, 510.405 601.155 M 376.500 602 C 376.840 602.550, 377.343 603, 377.618 603 C 377.893 603, 377.840 602.550, 377.500 602 C 377.160 601.450, 376.657 601, 376.382 601 C 376.107 601, 376.160 601.450, 376.500 602 M 380 606.500 C 380 606.775, 380.225 607, 380.500 607 C 380.775 607, 381 606.775, 381 606.500 C 381 606.225, 380.775 606, 380.500 606 C 380.225 606, 380 606.225, 380 606.500 M 505 608.500 C 505 608.775, 505.225 609, 505.500 609 C 505.775 609, 506 608.775, 506 608.500 C 506 608.225, 505.775 608, 505.500 608 C 505.225 608, 505 608.225, 505 608.500 M 500.405 614.155 C 499.962 614.870, 500.130 615.038, 500.845 614.595 C 501.480 614.203, 502 613.684, 502 613.441 C 502 613.198, 501.802 613, 501.559 613 C 501.316 613, 500.797 613.520, 500.405 614.155 M 388 615.500 C 388 615.775, 388.225 616, 388.500 616 C 388.775 616, 389 615.775, 389 615.500 C 389 615.225, 388.775 615, 388.500 615 C 388.225 615, 388 615.225, 388 615.500 M 494.405 620.155 C 493.962 620.870, 494.130 621.038, 494.845 620.595 C 495.480 620.203, 496 619.684, 496 619.441 C 496 619.198, 495.802 619, 495.559 619 C 495.316 619, 494.797 619.520, 494.405 620.155 M 393 621.500 C 393 621.775, 393.225 622, 393.500 622 C 393.775 622, 394 621.775, 394 621.500 C 394 621.225, 393.775 621, 393.500 621 C 393.225 621, 393 621.225, 393 621.500 M 397 625.500 C 397 625.775, 397.225 626, 397.500 626 C 397.775 626, 398 625.775, 398 625.500 C 398 625.225, 397.775 625, 397.500 625 C 397.225 625, 397 625.225, 397 625.500 M 487 628.500 C 487 628.775, 487.225 629, 487.500 629 C 487.775 629, 488 628.775, 488 628.500 C 488 628.225, 487.775 628, 487.500 628 C 487.225 628, 487 628.225, 487 628.500 M 402 630.500 C 402 630.775, 402.225 631, 402.500 631 C 402.775 631, 403 630.775, 403 630.500 C 403 630.225, 402.775 630, 402.500 630 C 402.225 630, 402 630.225, 402 630.500 M 485 630.500 C 485 630.775, 485.225 631, 485.500 631 C 485.775 631, 486 630.775, 486 630.500 C 486 630.225, 485.775 630, 485.500 630 C 485.225 630, 485 630.225, 485 630.500 M 473 641.500 C 473 641.775, 473.225 642, 473.500 642 C 473.775 642, 474 641.775, 474 641.500 C 474 641.225, 473.775 641, 473.500 641 C 473.225 641, 473 641.225, 473 641.500 M 470.405 644.155 C 469.962 644.870, 470.130 645.038, 470.845 644.595 C 471.480 644.203, 472 643.684, 472 643.441 C 472 643.198, 471.802 643, 471.559 643 C 471.316 643, 470.797 643.520, 470.405 644.155 M 417 644.500 C 417 644.775, 417.225 645, 417.500 645 C 417.775 645, 418 644.775, 418 644.500 C 418 644.225, 417.775 644, 417.500 644 C 417.225 644, 417 644.225, 417 644.500 M 463 650.500 C 463 650.775, 463.225 651, 463.500 651 C 463.775 651, 464 650.775, 464 650.500 C 464 650.225, 463.775 650, 463.500 650 C 463.225 650, 463 650.225, 463 650.500 M 431 656.500 C 431 656.775, 431.225 657, 431.500 657 C 431.775 657, 432 656.775, 432 656.500 C 432 656.225, 431.775 656, 431.500 656 C 431.225 656, 431 656.225, 431 656.500 M 455 657.500 C 455 657.775, 455.225 658, 455.500 658 C 455.775 658, 456 657.775, 456 657.500 C 456 657.225, 455.775 657, 455.500 657 C 455.225 657, 455 657.225, 455 657.500 M 453 658.500 C 453 658.775, 453.225 659, 453.500 659 C 453.775 659, 454 658.775, 454 658.500 C 454 658.225, 453.775 658, 453.500 658 C 453.225 658, 453 658.225, 453 658.500 M 448 662.500 C 448 662.775, 448.225 663, 448.500 663 C 448.775 663, 449 662.775, 449 662.500 C 449 662.225, 448.775 662, 448.500 662 C 448.225 662, 448 662.225, 448 662.500 M 441 663.500 C 441 663.775, 441.225 664, 441.500 664 C 441.775 664, 442 663.775, 442 663.500 C 442 663.225, 441.775 663, 441.500 663 C 441.225 663, 441 663.225, 441 663.500" stroke="none" fill="#3d3e25" fill-rule="evenodd"/><path d="M 316.242 145.461 C 314.395 146.282, 312.537 148.087, 311.951 149.629 C 311.383 151.124, 311.204 153.652, 311.554 155.246 C 311.929 156.952, 313.405 158.884, 315.140 159.939 C 316.878 160.996, 321.251 162.016, 325.794 162.424 C 330.032 162.805, 336.425 163.838, 340 164.719 C 343.575 165.601, 348.853 167.638, 351.730 169.245 C 354.606 170.853, 360.036 175.463, 363.797 179.490 C 367.558 183.517, 371.701 189.057, 373.003 191.800 C 374.306 194.544, 376.595 197.511, 378.090 198.394 C 379.585 199.277, 382.394 200, 384.332 200 C 386.983 200, 388.391 199.320, 390.021 197.250 C 391.839 194.942, 392.084 193.715, 391.542 189.619 C 391.187 186.934, 389.513 181.984, 387.822 178.619 C 385.848 174.689, 382.020 169.804, 377.124 164.966 C 371.850 159.755, 366.762 155.940, 360.620 152.593 C 353.359 148.636, 350.168 147.523, 343.120 146.492 C 338.379 145.798, 331.125 144.956, 327 144.621 C 321.512 144.175, 318.626 144.401, 316.242 145.461 M 548.145 145.639 C 541.372 146.683, 536.501 148.179, 530.499 151.057 C 525.939 153.244, 520.024 156.667, 517.354 158.665 C 514.684 160.662, 510.057 165.105, 507.071 168.538 C 504.085 171.971, 500.380 177.275, 498.837 180.326 C 497.295 183.376, 495.733 188.421, 495.367 191.535 C 494.859 195.856, 495.033 197.407, 496.101 198.083 C 496.870 198.571, 500.207 198.976, 503.515 198.985 C 509.531 199, 509.531 199, 515.015 190.759 C 518.032 186.226, 522.975 180.120, 526 177.190 C 529.025 174.260, 533.975 170.594, 537 169.044 C 540.025 167.493, 544.975 165.466, 548 164.539 C 551.025 163.612, 557.439 162.505, 562.252 162.080 C 568.474 161.529, 571.582 160.783, 573.002 159.498 C 574.350 158.278, 575 156.418, 575 153.779 C 575 151.628, 574.559 149.045, 574.021 148.039 C 573.483 147.033, 571.616 145.713, 569.872 145.105 C 568.128 144.497, 564.631 144.044, 562.101 144.098 C 559.570 144.152, 553.290 144.845, 548.145 145.639 M 426.277 205.415 C 420.015 206.966, 414.396 209.228, 408.777 212.459 C 404.225 215.077, 398.553 219.082, 396.173 221.359 C 393.793 223.637, 389.795 228.200, 387.287 231.500 C 384.779 234.800, 381.399 240.425, 379.775 244 C 378.151 247.575, 376.195 253.425, 375.429 257 C 374.662 260.575, 374.027 267.398, 374.017 272.162 C 374.008 276.926, 374.660 284.272, 375.466 288.487 C 376.272 292.701, 378.579 299.603, 380.593 303.825 C 382.606 308.046, 385.872 313.525, 387.850 316 C 389.829 318.475, 392.801 321.790, 394.455 323.367 C 396.109 324.944, 399.946 327.831, 402.981 329.782 C 406.017 331.733, 412.116 335.008, 416.536 337.058 C 421.353 339.292, 427.682 341.287, 432.335 342.038 C 436.944 342.781, 443.429 343.044, 448.299 342.684 C 452.809 342.351, 459.025 341.408, 462.111 340.588 C 465.197 339.769, 470.147 337.962, 473.111 336.573 C 476.075 335.185, 479.378 333.475, 480.450 332.774 C 481.523 332.073, 484.673 329.961, 487.450 328.080 C 490.228 326.199, 494.750 322.226, 497.500 319.252 C 500.250 316.277, 504.125 310.810, 506.111 307.102 C 508.097 303.394, 510.776 297.017, 512.065 292.930 C 514.016 286.746, 514.412 283.320, 514.427 272.500 C 514.444 260.500, 514.199 258.770, 511.248 250 C 509.014 243.361, 506.516 238.392, 502.954 233.500 C 500.150 229.650, 496.651 225.214, 495.178 223.642 C 493.705 222.069, 489.350 218.644, 485.500 216.030 C 481.650 213.416, 476.475 210.365, 474 209.250 C 471.525 208.135, 465.799 206.273, 461.276 205.112 C 455.786 203.702, 450.136 203.022, 444.276 203.066 C 438.701 203.108, 432.136 203.965, 426.277 205.415 M 338 346.984 C 332.775 347.448, 322.702 348.777, 315.615 349.938 C 308.529 351.099, 302.389 352.259, 301.972 352.517 C 301.555 352.775, 298.353 353.623, 294.857 354.402 C 291.361 355.180, 285.185 356.774, 281.134 357.944 C 277.083 359.114, 268.083 362.612, 261.134 365.718 C 254.185 368.823, 246.161 372.836, 243.303 374.636 C 240.444 376.435, 234.711 380.418, 230.561 383.487 C 226.149 386.750, 220.925 391.830, 217.978 395.723 C 215.206 399.384, 211.599 405.107, 209.963 408.440 C 208.326 411.773, 206.315 418.027, 205.493 422.338 C 204.672 426.649, 204 433.228, 204 436.958 C 204 441.017, 204.814 446.288, 206.028 450.088 C 207.144 453.580, 208.800 457.576, 209.709 458.969 C 210.619 460.361, 213.078 463.202, 215.176 465.283 C 217.273 467.364, 220.993 469.925, 223.442 470.975 C 225.892 472.025, 231.005 473.810, 234.806 474.942 C 240.370 476.599, 244.487 477, 255.951 477 C 266.310 477, 272.951 476.443, 280.343 474.956 C 285.929 473.831, 293.875 472.001, 298 470.889 C 302.125 469.776, 308.650 467.717, 312.500 466.312 C 316.350 464.907, 325.125 461.088, 332 457.824 C 338.875 454.561, 346.300 450.717, 348.500 449.284 C 350.700 447.850, 354.525 445.316, 357 443.653 C 359.475 441.990, 362.850 439.570, 364.500 438.276 C 366.150 436.981, 372.450 431.945, 378.500 427.085 C 384.550 422.225, 392.673 414.705, 396.550 410.374 C 400.428 406.043, 406.098 398.675, 409.151 394 C 412.204 389.325, 415.545 384.150, 416.576 382.500 C 417.607 380.850, 419.237 378.062, 420.198 376.304 C 421.160 374.546, 423.795 368.780, 426.055 363.490 C 428.315 358.200, 429.917 353.225, 429.614 352.436 C 429.232 351.442, 427.437 350.995, 423.781 350.984 C 420.877 350.976, 412.200 350.063, 404.500 348.957 C 395.242 347.627, 383.218 346.809, 369 346.543 C 357.175 346.321, 343.225 346.519, 338 346.984 M 502.500 347.040 C 495.900 347.445, 487.800 348.253, 484.500 348.834 C 481.200 349.415, 475.350 350.164, 471.500 350.497 C 467.650 350.830, 463.488 351.313, 462.250 351.570 C 460.580 351.918, 460 352.742, 460.001 354.769 C 460.001 356.271, 462.959 363.575, 466.573 371 C 470.188 378.425, 474.237 385.932, 475.572 387.683 C 476.908 389.434, 478 391.141, 478 391.476 C 478 391.811, 479.896 394.654, 482.214 397.793 C 484.532 400.932, 489.649 407.100, 493.586 411.500 C 497.522 415.900, 504.738 422.978, 509.621 427.228 C 514.505 431.478, 521.875 437.300, 526 440.164 C 530.125 443.029, 535.975 447.008, 539 449.006 C 542.025 451.004, 548.775 454.685, 554 457.187 C 559.225 459.688, 565.075 462.402, 567 463.218 C 568.925 464.034, 572.975 465.644, 576 466.796 C 579.025 467.949, 584.200 469.625, 587.500 470.523 C 590.800 471.420, 597.550 473.036, 602.500 474.114 C 607.450 475.193, 616.450 476.436, 622.500 476.876 C 628.550 477.317, 637.100 477.348, 641.500 476.947 C 645.900 476.545, 652.527 475.231, 656.228 474.028 C 659.928 472.825, 664.560 470.752, 666.522 469.421 C 668.484 468.089, 670.355 467, 670.680 467 C 671.005 467, 672.222 465.971, 673.385 464.713 C 674.548 463.456, 676.218 461.318, 677.096 459.963 C 677.974 458.609, 679.685 454.618, 680.898 451.095 C 682.566 446.253, 683.109 442.348, 683.124 435.095 C 683.135 429.818, 682.660 423.025, 682.070 420 C 681.480 416.975, 679.551 411.575, 677.785 408 C 676.018 404.425, 672.697 399.025, 670.404 396 C 668.112 392.975, 664.772 389.205, 662.984 387.623 C 661.195 386.040, 656.979 382.837, 653.616 380.505 C 650.252 378.173, 643.900 374.296, 639.500 371.891 C 635.100 369.485, 629.025 366.466, 626 365.182 C 622.975 363.898, 616.064 361.302, 610.642 359.413 C 605.220 357.524, 595.995 354.899, 590.142 353.581 C 584.289 352.262, 575.285 350.458, 570.133 349.572 C 564.982 348.685, 555.532 347.526, 549.133 346.996 C 542.735 346.466, 532.325 346.093, 526 346.167 C 519.675 346.242, 509.100 346.635, 502.500 347.040 M 442.425 402.750 C 441.432 404.262, 438.014 409.676, 434.829 414.780 C 431.644 419.884, 426.571 427.084, 423.556 430.780 C 420.540 434.476, 414.794 440.924, 410.787 445.109 C 406.779 449.294, 399.675 455.761, 395 459.481 C 390.325 463.200, 386.108 466.604, 385.629 467.043 C 385.149 467.483, 387.910 468.782, 391.763 469.929 C 395.617 471.077, 403.884 473.228, 410.135 474.709 C 420.630 477.196, 423.146 477.403, 443 477.408 C 461.434 477.413, 465.997 477.096, 475 475.187 C 480.775 473.962, 489.438 471.763, 494.250 470.299 C 499.063 468.836, 502.983 467.382, 502.961 467.069 C 502.940 466.756, 499.678 464.269, 495.711 461.542 C 491.745 458.815, 483.904 451.905, 478.288 446.187 C 472.671 440.469, 465.341 432.212, 461.999 427.839 C 458.656 423.466, 453.689 415.994, 450.961 411.236 C 448.232 406.477, 446 402.003, 446 401.292 C 446 400.581, 445.602 400, 445.115 400 C 444.628 400, 443.418 401.238, 442.425 402.750 M 348.796 486.186 C 346.433 487.235, 341.800 489.445, 338.500 491.097 C 335.200 492.749, 331.388 494.943, 330.029 495.972 C 327.557 497.843, 327.557 497.843, 329.832 506.516 C 331.083 511.287, 333.926 519.085, 336.150 523.845 C 338.373 528.605, 340.546 532.632, 340.978 532.794 C 341.410 532.956, 344.404 534.691, 347.632 536.650 C 350.859 538.610, 359.466 542.382, 366.758 545.034 C 374.050 547.685, 383.725 550.747, 388.258 551.836 C 392.791 552.926, 400.775 554.558, 406 555.462 C 411.225 556.367, 420.338 557.430, 426.251 557.824 C 432.164 558.218, 444.989 558.228, 454.751 557.845 C 464.513 557.462, 475.650 556.483, 479.500 555.670 C 483.350 554.857, 489.200 553.659, 492.500 553.007 C 495.800 552.356, 502.100 550.792, 506.500 549.531 C 510.900 548.271, 518.550 545.647, 523.500 543.700 C 528.450 541.753, 533.625 539.553, 535 538.810 C 536.375 538.067, 539.398 536.181, 541.717 534.618 C 544.036 533.056, 547.246 529.690, 548.849 527.139 C 550.452 524.588, 553.022 519.350, 554.560 515.500 C 556.142 511.541, 557.545 505.814, 557.791 502.317 C 558.224 496.134, 558.224 496.134, 547.456 490.979 C 541.533 488.143, 535.224 485.586, 533.436 485.296 C 531.240 484.940, 528.937 485.439, 526.342 486.834 C 524.229 487.971, 519.431 490.296, 515.679 492.003 C 511.928 493.709, 504.771 496.441, 499.776 498.073 C 494.781 499.705, 486.825 501.673, 482.097 502.446 C 477.369 503.218, 471.475 504.307, 469 504.865 C 466.525 505.423, 458.425 506.167, 451 506.518 C 443.534 506.871, 432.807 506.687, 427 506.107 C 421.225 505.530, 411.550 504.169, 405.500 503.083 C 399.450 501.997, 392.925 500.580, 391 499.934 C 389.075 499.288, 382.100 496.709, 375.500 494.203 C 368.900 491.696, 361.158 488.438, 358.296 486.962 C 353.093 484.279, 353.093 484.279, 348.796 486.186 M 361.598 579.250 C 363.041 581.587, 366.506 586.875, 369.299 591 C 372.092 595.125, 375.971 600.525, 377.921 603 C 379.871 605.475, 385.509 612, 390.450 617.500 C 395.392 623, 403.050 630.930, 407.468 635.122 C 411.885 639.314, 417.966 644.905, 420.980 647.547 C 423.995 650.189, 430.070 655.027, 434.480 658.300 C 438.891 661.572, 443.049 664.461, 443.721 664.721 C 444.393 664.980, 447.238 663.461, 450.043 661.346 C 452.849 659.231, 459.049 654.169, 463.822 650.097 C 468.595 646.025, 479.045 636.125, 487.044 628.097 C 495.043 620.069, 504.376 609.780, 507.784 605.234 C 511.192 600.687, 517.135 592.232, 520.990 586.445 C 524.846 580.658, 528 575.727, 528 575.487 C 528 575.247, 524.288 576.451, 519.750 578.162 C 515.212 579.874, 508.575 582.142, 505 583.203 C 501.425 584.263, 493.325 586.177, 487 587.456 C 480.675 588.735, 471.399 590.281, 466.387 590.891 C 461.374 591.501, 450.799 591.985, 442.887 591.966 C 434.974 591.947, 423.550 591.310, 417.500 590.551 C 411.450 589.791, 403.125 588.443, 399 587.554 C 394.875 586.666, 388.350 585.018, 384.500 583.894 C 380.650 582.769, 375.025 580.944, 372 579.839 C 368.975 578.734, 365.306 577.193, 363.846 576.415 C 362.386 575.637, 360.693 575, 360.083 575 C 359.474 575, 360.155 576.913, 361.598 579.250" stroke="none" fill="#fcfcfc" fill-rule="evenodd"/></svg>