<svg version="1.1" id="Layer_1" xmlns="http://www.w3.org/2000/svg" xmlns:xlink="http://www.w3.org/1999/xlink" x="0px" y="0px"
	 width="100%" viewBox="0 0 880 880" enable-background="new 0 0 880 880" xml:space="preserve">
<path fill="#000000" opacity="1.000000" stroke="none" 
	d="
M1.000000,510.000000 
	C1.000000,473.645782 1.000000,437.291534 1.179324,400.708801 
	C1.968175,401.630035 2.298899,403.163513 4.021700,403.052155 
	C8.662610,402.752319 12.301601,405.064575 15.925030,407.462952 
	C18.825481,409.382812 21.864134,409.999115 25.410517,409.404602 
	C30.971958,408.472260 36.546322,407.894348 42.285229,408.689606 
	C50.054817,409.766174 56.343163,406.783600 60.632393,400.086670 
	C66.919212,390.270844 72.988533,380.312164 79.435280,370.603394 
	C84.297180,363.281433 88.484573,355.633850 89.257652,346.837860 
	C90.623154,331.301422 96.471321,317.103485 101.760323,302.767548 
	C106.356102,290.310608 114.050156,281.579407 128.885406,280.666016 
	C137.802872,280.117004 145.696777,275.484039 151.711044,268.499847 
	C162.775436,255.651047 173.154846,242.305054 181.299667,227.342300 
	C184.241577,221.937759 186.791199,216.130463 190.677460,211.472839 
	C196.752594,204.191849 197.931870,196.588409 195.716934,187.700943 
	C193.768539,179.882950 194.472321,172.158035 198.501038,164.919373 
	C200.062073,162.114578 200.877747,158.971069 200.771545,155.783615 
	C200.284790,141.175140 207.377411,129.144608 214.140549,117.135788 
	C218.002533,110.278358 224.384552,107.602036 230.463593,109.139587 
	C240.909927,111.781754 251.595703,111.420815 262.211151,111.844574 
	C265.739502,111.985420 269.721985,111.385452 271.676086,108.234200 
	C276.518585,100.425018 283.690826,95.459846 291.153107,90.671608 
	C295.531036,87.862488 298.411041,83.632584 297.781708,78.535072 
	C296.377960,67.164963 300.485138,58.423519 308.847839,51.156765 
	C310.466980,49.749836 311.859497,48.021774 313.116302,46.269508 
	C316.975983,40.888107 322.378418,37.865711 328.413818,35.556076 
	C341.795410,30.435171 355.886963,28.385641 369.934753,27.149405 
	C387.111298,25.637823 404.057983,21.508196 421.646790,23.817219 
	C439.290588,26.133453 457.178558,26.527845 474.889252,28.421688 
	C483.880890,29.383183 492.779602,29.988443 501.788696,29.334314 
	C514.247681,28.429697 526.713196,27.611523 539.179382,26.810331 
	C559.565125,25.500149 578.574829,32.623554 598.073364,36.628429 
	C617.292175,40.575848 634.350769,50.708790 652.930420,56.563015 
	C655.502686,57.373524 657.680359,59.009426 659.518677,60.981880 
	C670.112244,72.348465 677.510742,85.236488 678.994751,101.079399 
	C679.867004,110.391037 681.265930,119.579674 686.484314,127.767792 
	C687.759583,129.768707 687.926392,132.506317 688.477356,134.933701 
	C692.449768,152.433075 693.000305,170.199295 693.210022,188.068375 
	C693.345581,199.618149 695.658447,210.993225 702.806824,220.614914 
	C705.674683,224.475113 709.340210,227.733978 712.331543,231.512802 
	C720.910522,242.350372 728.570862,254.025223 737.979797,264.071533 
	C754.668457,281.890656 767.737671,302.006897 779.231689,323.325256 
	C782.639832,329.646271 786.144287,335.926727 791.369324,340.957672 
	C805.365784,354.433990 813.607605,370.653931 815.305847,390.110748 
	C815.928406,397.242645 816.836731,404.350098 817.425781,411.484344 
	C820.673401,450.817719 820.469971,489.996979 812.209473,528.830872 
	C810.603027,536.383301 807.279846,543.406555 802.242554,548.715698 
	C793.471130,557.960571 784.276917,566.924805 774.173218,574.813538 
	C770.773315,577.468018 767.534241,580.597046 763.692383,582.347778 
	C759.096863,584.441895 755.240662,586.918457 751.436279,590.399963 
	C741.213745,599.754822 732.411682,610.337463 723.546875,620.843933 
	C708.881897,638.224609 698.796814,658.976746 682.891846,675.602112 
	C675.971863,682.835510 668.607666,688.940125 660.133911,693.939392 
	C657.842468,695.291260 655.136169,696.135498 653.798035,698.608032 
	C651.869141,702.172180 648.740723,704.481445 645.385681,706.207458 
	C637.561768,710.232422 631.907349,716.227295 627.146301,723.512939 
	C621.881348,731.569641 617.660339,740.344299 610.573303,747.194885 
	C592.724915,764.447876 572.218445,777.289856 548.692200,785.275085 
	C527.544800,792.452942 506.311493,799.702698 483.781952,800.446594 
	C464.929810,801.069031 446.236572,802.058289 427.671143,805.772400 
	C419.517731,807.403564 411.093872,806.676880 403.039764,803.644531 
	C397.741180,801.649658 392.242798,800.146667 386.620789,799.361938 
	C376.829315,797.995239 367.449432,795.053101 358.103760,792.039062 
	C344.161377,787.542847 330.434662,782.283752 315.762604,780.511169 
	C308.782471,779.667908 301.947327,778.074768 295.281311,776.003357 
	C279.788574,771.189148 268.533752,761.213013 266.521057,742.869446 
	C265.118561,730.086975 257.777557,719.340454 248.430893,710.289673 
	C241.339935,703.423218 232.300735,700.438110 223.232758,697.643372 
	C208.317505,693.046448 195.975571,684.934448 185.945053,672.859314 
	C176.451370,661.430481 164.530502,653.109619 150.875122,646.995972 
	C141.087021,642.613770 132.533142,636.141602 126.149437,627.293152 
	C120.687218,619.722046 115.316994,612.125000 108.371033,605.755981 
	C106.074326,603.650085 104.050636,601.036560 102.558731,598.297424 
	C93.796692,582.210754 84.946747,566.182434 80.660103,548.086548 
	C78.084183,537.212463 74.378220,526.695557 68.158012,517.195312 
	C64.187088,511.130463 55.394390,506.199341 48.603947,508.529999 
	C39.805813,511.549805 32.377262,510.757996 25.448027,504.657715 
	C24.961508,504.229370 24.272425,504.037567 23.696049,503.703796 
	C20.017756,501.573669 16.545231,501.451782 13.061704,504.305420 
	C10.868668,506.101898 8.204409,507.851227 5.349622,507.162598 
	C2.392148,506.449127 1.957174,508.328217 1.000000,510.000000 
M220.218903,469.317688 
	C227.708725,473.466095 235.784454,476.691437 244.150787,477.361877 
	C259.050140,478.555847 273.949585,477.686249 288.650604,474.074615 
	C317.237152,467.051758 343.425751,455.418518 366.952820,437.354248 
	C382.994904,425.037048 398.236572,412.304108 409.519104,395.265625 
	C417.343964,383.448792 424.299652,371.233917 429.311096,357.955627 
	C430.768341,354.094635 429.482819,352.135132 425.301880,352.438660 
	C419.937958,352.828033 414.625061,351.947937 409.450043,351.055328 
	C384.880829,346.817719 360.130280,346.011597 335.493195,348.721222 
	C309.922119,351.533630 284.655334,356.555603 261.079071,367.637848 
	C242.106934,376.555817 224.097000,386.656250 213.275803,405.869720 
	C204.142227,422.086792 199.114960,453.377350 220.218903,469.317688 
M684.120667,433.664551 
	C683.990723,433.012299 683.754883,432.361420 683.746216,431.707550 
	C683.499207,413.110382 674.935547,398.503418 661.144592,386.963409 
	C650.668518,378.197235 638.596313,371.858185 625.984436,366.429077 
	C597.052673,353.974792 566.624817,348.857697 535.463379,347.475464 
	C512.159485,346.441772 489.114624,350.120392 466.015228,352.504364 
	C461.830078,352.936279 460.539307,355.145477 462.177948,359.097046 
	C467.342712,371.551941 473.458344,383.517181 481.068329,394.676605 
	C489.444153,406.959106 499.551178,417.633423 510.620300,427.555725 
	C521.824951,437.599548 533.990051,446.354034 546.991821,453.626068 
	C565.396973,463.920319 585.034241,471.578583 605.954529,475.256775 
	C623.827271,478.399139 641.725159,480.301697 659.380676,473.778717 
	C667.515808,470.773071 674.717163,466.570648 678.896179,458.618622 
	C682.844971,451.104797 683.855530,442.864044 684.120667,433.664551 
M384.509949,309.133514 
	C389.791016,319.313080 397.852814,326.655029 407.652985,332.411102 
	C419.008179,339.080536 430.859802,343.757050 444.287292,343.613647 
	C458.601288,343.460785 471.687653,339.564850 483.709778,331.729767 
	C492.756256,325.833984 500.650024,318.845001 505.891785,309.329071 
	C510.716339,300.570557 513.785034,291.277740 515.101929,281.190094 
	C517.039795,266.346436 514.117737,252.366760 506.952209,239.892212 
	C497.082428,222.709732 482.084808,211.497757 462.337158,206.602127 
	C439.464996,200.931931 418.628510,205.650650 400.827606,219.824585 
	C372.745575,242.184814 368.176147,279.183990 384.509949,309.133514 
M490.915527,554.328308 
	C504.546722,551.264282 517.897705,547.324951 530.726379,541.717529 
	C536.846802,539.042236 543.000122,536.120789 547.239624,530.944458 
	C553.001404,523.909485 555.970276,515.295288 558.284912,506.596100 
	C560.071716,499.881073 558.709351,497.445618 552.281067,494.264740 
	C547.815002,492.054901 543.239624,490.066681 538.725647,487.952637 
	C534.656860,486.047028 530.884460,486.309998 526.863037,488.539948 
	C522.097778,491.182343 517.082703,493.432159 512.024841,495.478729 
	C489.410492,504.629303 465.709930,507.911377 441.481842,508.481079 
	C436.274963,508.603546 431.249359,507.492432 426.097626,507.291595 
	C415.810364,506.890656 405.680542,504.802948 395.746521,502.377472 
	C382.351562,499.106964 369.696014,493.533691 357.235718,487.624298 
	C355.574921,486.836670 353.845795,485.875305 351.997864,486.765411 
	C345.275726,490.003296 338.202545,492.563171 332.074493,496.962280 
	C330.358490,498.194153 329.105225,499.605469 329.675201,501.974945 
	C332.132263,512.189270 335.942566,521.890076 340.676514,531.246948 
	C341.383820,532.645081 342.561493,533.503113 343.842926,534.335022 
	C355.826965,542.115295 369.216278,546.582581 382.746704,550.600220 
	C395.319885,554.333557 408.195496,556.630249 421.274231,557.895447 
	C436.358551,559.354797 451.405121,558.678101 466.493286,558.040100 
	C474.537750,557.700073 482.118958,554.969055 490.915527,554.328308 
M438.977356,661.447021 
	C445.874420,665.949097 445.653778,665.655884 452.381592,660.593445 
	C459.429352,655.290344 466.077026,649.560974 472.564148,643.628540 
	C491.010468,626.759460 508.264557,608.836182 521.369324,587.338867 
	C522.853210,584.904663 525.001648,582.672668 525.016235,579.649292 
	C523.221436,578.237793 521.937256,579.397705 520.582153,579.878174 
	C511.513000,583.094543 502.340912,585.891418 492.947449,588.091736 
	C472.053619,592.986084 450.867188,594.283813 429.572266,593.189392 
	C421.202240,592.759155 412.775757,591.791626 404.465118,589.925171 
	C392.470673,587.231201 380.537933,584.497986 369.122620,579.823914 
	C367.639038,579.216431 365.908997,578.911316 364.562286,580.158569 
	C363.999115,581.403320 364.691376,582.257263 365.175537,583.084900 
	C375.403992,600.568298 388.586731,615.784668 402.755371,630.030579 
	C413.846985,641.182617 425.467560,651.910339 438.977356,661.447021 
M431.400513,423.750275 
	C419.460175,440.536774 404.639038,454.623505 388.462830,467.663910 
	C408.399536,482.147491 487.228851,481.463165 501.381805,466.825409 
	C477.459717,450.271729 459.624207,428.375031 445.721405,402.379761 
	C439.687988,409.016907 436.280243,416.450867 431.400513,423.750275 
M384.269745,173.165009 
	C375.732544,161.824890 364.512268,153.932709 351.291992,149.338654 
	C342.382996,146.242767 332.700256,146.306885 323.337494,145.563736 
	C315.196594,144.917572 310.109924,151.949188 313.745392,157.877548 
	C315.899017,161.389465 319.592438,162.335709 323.616180,162.679184 
	C333.004517,163.480560 342.451080,164.282394 350.993713,168.836807 
	C362.201233,174.811966 370.232422,183.796402 375.730988,195.175156 
	C377.723389,199.298203 383.641083,201.732086 387.607147,200.255325 
	C391.285248,198.885773 392.699890,194.904572 391.982544,189.847382 
	C391.111298,183.705276 388.246643,178.598480 384.269745,173.165009 
M520.785156,158.348312 
	C514.548767,162.632492 509.587830,168.211075 504.886047,174.047104 
	C500.520294,179.466034 497.849854,185.668335 496.577698,192.476318 
	C495.678253,197.289825 497.360382,198.943146 502.253723,199.696365 
	C508.941467,200.725784 512.447815,197.020172 515.348877,191.981964 
	C524.327148,176.389404 537.558411,166.868164 555.298096,163.403076 
	C559.303711,162.620636 563.254333,163.003052 567.194763,162.538162 
	C571.383972,162.043900 575.049866,160.615463 575.588928,155.594894 
	C576.179993,150.090500 574.500549,147.792496 569.143860,146.053421 
	C566.670715,145.250504 564.193604,145.249664 561.732300,145.430298 
	C547.326172,146.487579 533.551025,149.667419 520.785156,158.348312 
z"/>
</svg>