<svg width="600" height="600" viewBox="0 0 600 600" fill="none" xmlns="http://www.w3.org/2000/svg">
<g filter="url(#filter0_d_1647_877)">
<mask id="mask0_1647_877" style="mask-type:alpha" maskUnits="userSpaceOnUse" x="0" y="0" width="600" height="600">
<rect width="600" height="600" fill="#D9D9D9"/>
</mask>
<g mask="url(#mask0_1647_877)">
<path d="M243.747 550.003L201.247 475.003H118.747L62.4971 375.003L104.997 300.003L62.4971 225.003L118.747 125.003H201.247L243.747 50.0029H356.247L398.747 125.003H481.247L537.497 225.003L494.997 300.003L537.497 375.003L481.247 475.003H398.747L356.247 550.003H243.747ZM398.747 275.003H452.497L479.997 225.003L452.497 175.003H398.747L370.622 225.003L398.747 275.003ZM273.747 350.003H326.247L354.372 300.003L326.247 250.003H273.747L245.622 300.003L273.747 350.003ZM273.747 200.003H326.247L354.997 149.378L326.872 100.003H273.122L244.997 149.378L273.747 200.003ZM148.122 275.003H201.247L229.372 225.003L201.247 175.003H148.122L119.997 225.003L148.122 275.003ZM148.122 425.003H201.247L229.372 375.003L201.247 325.003H147.497L119.997 375.003L148.122 425.003ZM273.122 500.003H326.872L354.997 450.628L326.247 400.003H273.747L244.997 450.628L273.122 500.003ZM398.747 425.003H451.872L479.997 375.003L451.872 325.003H398.747L370.622 375.003L398.747 425.003Z" fill="#FFCF56"/>
</g>
</g>
<defs>
<filter id="filter0_d_1647_877" x="62.4971" y="46.0029" width="483" height="508" filterUnits="userSpaceOnUse" color-interpolation-filters="sRGB">
<feFlood flood-opacity="0" result="BackgroundImageFix"/>
<feColorMatrix in="SourceAlpha" type="matrix" values="0 0 0 0 0 0 0 0 0 0 0 0 0 0 0 0 0 0 127 0" result="hardAlpha"/>
<feOffset dx="4"/>
<feGaussianBlur stdDeviation="2"/>
<feComposite in2="hardAlpha" operator="out"/>
<feColorMatrix type="matrix" values="0 0 0 0 0 0 0 0 0 0 0 0 0 0 0 0 0 0 0.25 0"/>
<feBlend mode="normal" in2="BackgroundImageFix" result="effect1_dropShadow_1647_877"/>
<feBlend mode="normal" in="SourceGraphic" in2="effect1_dropShadow_1647_877" result="shape"/>
</filter>
</defs>
</svg>
